<mxfile host="Electron" modified="2023-12-30T05:10:31.145Z" agent="Mozilla/5.0 (Windows NT 10.0; Win64; x64) AppleWebKit/537.36 (KHTML, like Gecko) draw.io/22.1.11 Chrome/114.0.5735.289 Electron/25.9.8 Safari/537.36" etag="HrzS__CLVSfipUbAHkvL" version="22.1.11" type="device">
  <diagram name="Страница — 1" id="hLidgHpaxMcPmWKSmqx1">
    <mxGraphModel dx="-1255" dy="-449" grid="1" gridSize="10" guides="1" tooltips="1" connect="1" arrows="1" fold="1" page="1" pageScale="1" pageWidth="827" pageHeight="1169" math="0" shadow="0">
      <root>
        <mxCell id="0" />
        <mxCell id="1" parent="0" />
        <mxCell id="nFW0XrXpIKqKDF4PZtAt-1" value="" style="group;labelBackgroundColor=none;fontFamily=GOST type B;fontStyle=2" parent="1" vertex="1" connectable="0">
          <mxGeometry x="2520" y="1200" width="737.87" height="239" as="geometry" />
        </mxCell>
        <mxCell id="nFW0XrXpIKqKDF4PZtAt-2" value="" style="endArrow=none;html=1;rounded=0;labelBackgroundColor=none;fontColor=default;fontFamily=GOST type B;fontStyle=2" parent="nFW0XrXpIKqKDF4PZtAt-1" edge="1">
          <mxGeometry width="50" height="50" relative="1" as="geometry">
            <mxPoint y="220.92436974789916" as="sourcePoint" />
            <mxPoint as="targetPoint" />
          </mxGeometry>
        </mxCell>
        <mxCell id="nFW0XrXpIKqKDF4PZtAt-3" value="" style="endArrow=none;html=1;rounded=0;labelBackgroundColor=none;fontColor=default;fontFamily=GOST type B;fontStyle=2" parent="nFW0XrXpIKqKDF4PZtAt-1" edge="1">
          <mxGeometry width="50" height="50" relative="1" as="geometry">
            <mxPoint as="sourcePoint" />
            <mxPoint x="739.9938690540542" y="-1.004201680672269" as="targetPoint" />
          </mxGeometry>
        </mxCell>
        <mxCell id="nFW0XrXpIKqKDF4PZtAt-4" value="" style="endArrow=none;html=1;rounded=0;labelBackgroundColor=none;fontColor=default;fontFamily=GOST type B;fontStyle=2" parent="nFW0XrXpIKqKDF4PZtAt-1" edge="1">
          <mxGeometry width="50" height="50" relative="1" as="geometry">
            <mxPoint x="538.4456756756757" y="220.93441176470608" as="sourcePoint" />
            <mxPoint x="538.4456756756757" y="60" as="targetPoint" />
          </mxGeometry>
        </mxCell>
        <mxCell id="nFW0XrXpIKqKDF4PZtAt-5" value="" style="endArrow=none;html=1;rounded=0;labelBackgroundColor=none;fontColor=default;fontFamily=GOST type B;fontStyle=2" parent="nFW0XrXpIKqKDF4PZtAt-1" edge="1">
          <mxGeometry width="50" height="50" relative="1" as="geometry">
            <mxPoint x="259.2516216216216" y="220.92436974789916" as="sourcePoint" />
            <mxPoint x="259.2516216216216" as="targetPoint" />
          </mxGeometry>
        </mxCell>
        <mxCell id="nFW0XrXpIKqKDF4PZtAt-6" value="" style="endArrow=none;html=1;rounded=0;labelBackgroundColor=none;fontColor=default;fontFamily=GOST type B;fontStyle=2" parent="nFW0XrXpIKqKDF4PZtAt-1" edge="1">
          <mxGeometry width="50" height="50" relative="1" as="geometry">
            <mxPoint x="219.36675675675676" y="220.92436974789916" as="sourcePoint" />
            <mxPoint x="219.36675675675676" as="targetPoint" />
          </mxGeometry>
        </mxCell>
        <mxCell id="nFW0XrXpIKqKDF4PZtAt-7" value="" style="endArrow=none;html=1;rounded=0;labelBackgroundColor=none;fontColor=default;fontFamily=GOST type B;fontStyle=2" parent="nFW0XrXpIKqKDF4PZtAt-1" edge="1">
          <mxGeometry width="50" height="50" relative="1" as="geometry">
            <mxPoint x="160" y="220" as="sourcePoint" />
            <mxPoint x="159.53945945945947" y="0.010042016806941884" as="targetPoint" />
          </mxGeometry>
        </mxCell>
        <mxCell id="nFW0XrXpIKqKDF4PZtAt-8" value="" style="endArrow=none;html=1;rounded=0;labelBackgroundColor=none;fontColor=default;fontFamily=GOST type B;fontStyle=2" parent="nFW0XrXpIKqKDF4PZtAt-1" edge="1">
          <mxGeometry width="50" height="50" relative="1" as="geometry">
            <mxPoint x="66.6376379729729" y="220.93441176470608" as="sourcePoint" />
            <mxPoint x="66.6376379729729" y="0.010042016806941884" as="targetPoint" />
          </mxGeometry>
        </mxCell>
        <mxCell id="nFW0XrXpIKqKDF4PZtAt-9" value="" style="endArrow=none;html=1;rounded=0;labelBackgroundColor=none;fontColor=default;fontFamily=GOST type B;fontStyle=2" parent="nFW0XrXpIKqKDF4PZtAt-1" edge="1">
          <mxGeometry width="50" height="50" relative="1" as="geometry">
            <mxPoint x="22.933797297297296" y="100.42016806722688" as="sourcePoint" />
            <mxPoint x="22.933797297297296" as="targetPoint" />
          </mxGeometry>
        </mxCell>
        <mxCell id="nFW0XrXpIKqKDF4PZtAt-10" value="" style="endArrow=none;html=1;rounded=0;labelBackgroundColor=none;fontColor=default;fontFamily=GOST type B;fontStyle=2" parent="nFW0XrXpIKqKDF4PZtAt-1" edge="1">
          <mxGeometry width="50" height="50" relative="1" as="geometry">
            <mxPoint x="259.2516216216216" y="20.084033613445378" as="sourcePoint" />
            <mxPoint y="20.084033613445378" as="targetPoint" />
          </mxGeometry>
        </mxCell>
        <mxCell id="nFW0XrXpIKqKDF4PZtAt-11" value="" style="endArrow=none;html=1;rounded=0;labelBackgroundColor=none;fontColor=default;fontFamily=GOST type B;fontStyle=2" parent="nFW0XrXpIKqKDF4PZtAt-1" edge="1">
          <mxGeometry width="50" height="50" relative="1" as="geometry">
            <mxPoint x="259.2516216216216" y="40.168067226890756" as="sourcePoint" />
            <mxPoint y="40.168067226890756" as="targetPoint" />
          </mxGeometry>
        </mxCell>
        <mxCell id="nFW0XrXpIKqKDF4PZtAt-12" value="" style="endArrow=none;html=1;rounded=0;labelBackgroundColor=none;fontColor=default;fontFamily=GOST type B;fontStyle=2" parent="nFW0XrXpIKqKDF4PZtAt-1" edge="1">
          <mxGeometry width="50" height="50" relative="1" as="geometry">
            <mxPoint x="259.2516216216216" y="60.252100840336134" as="sourcePoint" />
            <mxPoint y="60.252100840336134" as="targetPoint" />
          </mxGeometry>
        </mxCell>
        <mxCell id="nFW0XrXpIKqKDF4PZtAt-13" value="" style="endArrow=none;html=1;rounded=0;fontFamily=GOST type B;labelBackgroundColor=none;fontColor=default;fontStyle=2" parent="nFW0XrXpIKqKDF4PZtAt-1" edge="1">
          <mxGeometry width="50" height="50" relative="1" as="geometry">
            <mxPoint x="259.2516216216216" y="80.33613445378151" as="sourcePoint" />
            <mxPoint y="80.33613445378151" as="targetPoint" />
          </mxGeometry>
        </mxCell>
        <mxCell id="nFW0XrXpIKqKDF4PZtAt-14" value="" style="endArrow=none;html=1;rounded=0;fontFamily=GOST type B;labelBackgroundColor=none;fontColor=default;fontStyle=2" parent="nFW0XrXpIKqKDF4PZtAt-1" edge="1">
          <mxGeometry width="50" height="50" relative="1" as="geometry">
            <mxPoint x="259.2516216216216" y="100.42016806722688" as="sourcePoint" />
            <mxPoint y="100.42016806722688" as="targetPoint" />
          </mxGeometry>
        </mxCell>
        <mxCell id="nFW0XrXpIKqKDF4PZtAt-15" value="" style="endArrow=none;html=1;rounded=0;fontFamily=GOST type B;labelBackgroundColor=none;fontColor=default;fontStyle=2" parent="nFW0XrXpIKqKDF4PZtAt-1" edge="1">
          <mxGeometry width="50" height="50" relative="1" as="geometry">
            <mxPoint x="259.2516216216216" y="120.50420168067227" as="sourcePoint" />
            <mxPoint y="120.50420168067227" as="targetPoint" />
          </mxGeometry>
        </mxCell>
        <mxCell id="nFW0XrXpIKqKDF4PZtAt-16" value="" style="endArrow=none;html=1;rounded=0;fontFamily=GOST type B;labelBackgroundColor=none;fontColor=default;fontStyle=2" parent="nFW0XrXpIKqKDF4PZtAt-1" edge="1">
          <mxGeometry width="50" height="50" relative="1" as="geometry">
            <mxPoint x="259.2516216216216" y="140.58823529411765" as="sourcePoint" />
            <mxPoint y="140.58823529411765" as="targetPoint" />
          </mxGeometry>
        </mxCell>
        <mxCell id="nFW0XrXpIKqKDF4PZtAt-17" value="" style="endArrow=none;html=1;rounded=0;fontFamily=GOST type B;labelBackgroundColor=none;fontColor=default;fontStyle=2" parent="nFW0XrXpIKqKDF4PZtAt-1" edge="1">
          <mxGeometry width="50" height="50" relative="1" as="geometry">
            <mxPoint x="259.2516216216216" y="160.67226890756302" as="sourcePoint" />
            <mxPoint y="160.67226890756302" as="targetPoint" />
          </mxGeometry>
        </mxCell>
        <mxCell id="nFW0XrXpIKqKDF4PZtAt-18" value="" style="endArrow=none;html=1;rounded=0;fontFamily=GOST type B;labelBackgroundColor=none;fontColor=default;fontStyle=2" parent="nFW0XrXpIKqKDF4PZtAt-1" edge="1">
          <mxGeometry width="50" height="50" relative="1" as="geometry">
            <mxPoint x="259.2516216216216" y="180.7563025210084" as="sourcePoint" />
            <mxPoint y="180.7563025210084" as="targetPoint" />
          </mxGeometry>
        </mxCell>
        <mxCell id="nFW0XrXpIKqKDF4PZtAt-19" value="" style="endArrow=none;html=1;rounded=0;fontFamily=GOST type B;labelBackgroundColor=none;fontColor=default;fontStyle=2" parent="nFW0XrXpIKqKDF4PZtAt-1" edge="1">
          <mxGeometry width="50" height="50" relative="1" as="geometry">
            <mxPoint x="259.2516216216216" y="200.84033613445376" as="sourcePoint" />
            <mxPoint y="200.84033613445376" as="targetPoint" />
          </mxGeometry>
        </mxCell>
        <mxCell id="nFW0XrXpIKqKDF4PZtAt-20" value="" style="endArrow=none;html=1;rounded=0;exitX=0.93;exitY=0.476;exitDx=0;exitDy=0;exitPerimeter=0;labelBackgroundColor=none;fontColor=default;fontFamily=GOST type B;fontStyle=2" parent="nFW0XrXpIKqKDF4PZtAt-1" edge="1">
          <mxGeometry width="50" height="50" relative="1" as="geometry">
            <mxPoint x="737.1260276156759" y="60.261439915966555" as="sourcePoint" />
            <mxPoint x="259.2516216216216" y="60.252100840336134" as="targetPoint" />
          </mxGeometry>
        </mxCell>
        <mxCell id="nFW0XrXpIKqKDF4PZtAt-21" value="" style="endArrow=none;html=1;rounded=0;exitX=0.93;exitY=0.476;exitDx=0;exitDy=0;exitPerimeter=0;labelBackgroundColor=none;fontColor=default;fontFamily=GOST type B;fontStyle=2" parent="nFW0XrXpIKqKDF4PZtAt-1" edge="1">
          <mxGeometry width="50" height="50" relative="1" as="geometry">
            <mxPoint x="737.1359988318924" y="160.68160798319343" as="sourcePoint" />
            <mxPoint x="259.26159283783807" y="160.67226890756302" as="targetPoint" />
          </mxGeometry>
        </mxCell>
        <mxCell id="nFW0XrXpIKqKDF4PZtAt-22" value="" style="endArrow=none;html=1;rounded=0;labelBackgroundColor=none;fontColor=default;fontFamily=GOST type B;fontStyle=2" parent="nFW0XrXpIKqKDF4PZtAt-1" edge="1">
          <mxGeometry width="50" height="50" relative="1" as="geometry">
            <mxPoint x="737.87" y="80.33613445378151" as="sourcePoint" />
            <mxPoint x="538.4456756756757" y="80.33613445378151" as="targetPoint" />
          </mxGeometry>
        </mxCell>
        <mxCell id="nFW0XrXpIKqKDF4PZtAt-23" value="" style="endArrow=none;html=1;rounded=0;labelBackgroundColor=none;fontColor=default;fontFamily=GOST type B;fontStyle=2" parent="nFW0XrXpIKqKDF4PZtAt-1" edge="1">
          <mxGeometry width="50" height="50" relative="1" as="geometry">
            <mxPoint x="737.1321300000002" y="140.58823529411765" as="sourcePoint" />
            <mxPoint x="538.4456756756757" y="140.58823529411765" as="targetPoint" />
          </mxGeometry>
        </mxCell>
        <mxCell id="nFW0XrXpIKqKDF4PZtAt-24" value="" style="endArrow=none;html=1;rounded=0;labelBackgroundColor=none;fontColor=default;fontFamily=GOST type B;fontStyle=2" parent="nFW0XrXpIKqKDF4PZtAt-1" edge="1">
          <mxGeometry width="50" height="50" relative="1" as="geometry">
            <mxPoint x="558.3881081081081" y="140.58823529411765" as="sourcePoint" />
            <mxPoint x="558.3881081081081" y="80.33613445378151" as="targetPoint" />
          </mxGeometry>
        </mxCell>
        <mxCell id="nFW0XrXpIKqKDF4PZtAt-25" value="" style="endArrow=none;html=1;rounded=0;labelBackgroundColor=none;fontColor=default;fontFamily=GOST type B;fontStyle=2" parent="nFW0XrXpIKqKDF4PZtAt-1" edge="1">
          <mxGeometry width="50" height="50" relative="1" as="geometry">
            <mxPoint x="578.3305405405406" y="140.58823529411765" as="sourcePoint" />
            <mxPoint x="578.3305405405406" y="80.33613445378151" as="targetPoint" />
          </mxGeometry>
        </mxCell>
        <mxCell id="nFW0XrXpIKqKDF4PZtAt-26" value="" style="endArrow=none;html=1;rounded=0;labelBackgroundColor=none;fontColor=default;fontFamily=GOST type B;fontStyle=2" parent="nFW0XrXpIKqKDF4PZtAt-1" edge="1">
          <mxGeometry width="50" height="50" relative="1" as="geometry">
            <mxPoint x="598.272972972973" y="140.58823529411765" as="sourcePoint" />
            <mxPoint x="598.272972972973" y="60.252100840336134" as="targetPoint" />
          </mxGeometry>
        </mxCell>
        <mxCell id="nFW0XrXpIKqKDF4PZtAt-27" value="" style="endArrow=none;html=1;rounded=0;labelBackgroundColor=none;fontColor=default;fontFamily=GOST type B;fontStyle=2" parent="nFW0XrXpIKqKDF4PZtAt-1" edge="1">
          <mxGeometry width="50" height="50" relative="1" as="geometry">
            <mxPoint x="662.0887567567568" y="140.58823529411765" as="sourcePoint" />
            <mxPoint x="662.0887567567568" y="60.252100840336134" as="targetPoint" />
          </mxGeometry>
        </mxCell>
        <mxCell id="nFW0XrXpIKqKDF4PZtAt-28" value="" style="endArrow=none;html=1;rounded=0;labelBackgroundColor=none;fontColor=default;fontFamily=GOST type B;fontStyle=2" parent="nFW0XrXpIKqKDF4PZtAt-1" edge="1">
          <mxGeometry width="50" height="50" relative="1" as="geometry">
            <mxPoint x="618.2154054054055" y="160.67226890756302" as="sourcePoint" />
            <mxPoint x="618.2154054054055" y="140.58823529411765" as="targetPoint" />
          </mxGeometry>
        </mxCell>
        <mxCell id="nFW0XrXpIKqKDF4PZtAt-29" value="&lt;font style=&quot;font-size: 10px;&quot;&gt;&lt;span&gt;Изм.&lt;/span&gt;&lt;/font&gt;" style="text;html=1;align=center;verticalAlign=middle;resizable=0;points=[];autosize=1;strokeColor=none;fillColor=none;fontFamily=GOST type B;labelBackgroundColor=none;fontStyle=2" parent="nFW0XrXpIKqKDF4PZtAt-1" vertex="1">
          <mxGeometry x="-7.976972972972973" y="77.32352941176471" width="40" height="30" as="geometry" />
        </mxCell>
        <mxCell id="nFW0XrXpIKqKDF4PZtAt-30" value="&lt;font size=&quot;1&quot;&gt;&lt;span style=&quot;font-size: 12px;&quot;&gt;Л.&lt;/span&gt;&lt;/font&gt;" style="text;html=1;align=center;verticalAlign=middle;resizable=0;points=[];autosize=1;strokeColor=none;fillColor=none;fontFamily=GOST type B;labelBackgroundColor=none;fontStyle=2" parent="nFW0XrXpIKqKDF4PZtAt-1" vertex="1">
          <mxGeometry x="41.8935" y="77.32352941176471" width="30" height="30" as="geometry" />
        </mxCell>
        <mxCell id="nFW0XrXpIKqKDF4PZtAt-31" value="&lt;font&gt;&lt;span&gt;Т.Контр.&lt;/span&gt;&lt;/font&gt;" style="text;html=1;align=center;verticalAlign=middle;resizable=0;points=[];autosize=1;strokeColor=none;fillColor=none;fontFamily=GOST type B;labelBackgroundColor=none;fontStyle=2" parent="nFW0XrXpIKqKDF4PZtAt-1" vertex="1">
          <mxGeometry x="-4.985608108108108" y="138.57983193277312" width="70" height="30" as="geometry" />
        </mxCell>
        <mxCell id="nFW0XrXpIKqKDF4PZtAt-32" value="&lt;font&gt;&lt;span&gt;Рец&lt;/span&gt;&lt;/font&gt;." style="text;html=1;align=center;verticalAlign=middle;resizable=0;points=[];autosize=1;strokeColor=none;fillColor=none;fontFamily=GOST type B;labelBackgroundColor=none;fontStyle=2" parent="nFW0XrXpIKqKDF4PZtAt-1" vertex="1">
          <mxGeometry x="1.0230270270270267" y="158.6638655462185" width="40" height="30" as="geometry" />
        </mxCell>
        <mxCell id="nFW0XrXpIKqKDF4PZtAt-33" value="&lt;span&gt;&lt;font&gt;Н. контр.&lt;/font&gt;&lt;/span&gt;" style="text;html=1;align=center;verticalAlign=middle;resizable=0;points=[];autosize=1;strokeColor=none;fillColor=none;fontFamily=GOST type B;labelBackgroundColor=none;fontStyle=2" parent="nFW0XrXpIKqKDF4PZtAt-1" vertex="1">
          <mxGeometry x="-1.9769729729729733" y="178.74789915966386" width="70" height="30" as="geometry" />
        </mxCell>
        <mxCell id="nFW0XrXpIKqKDF4PZtAt-35" value="&lt;span&gt;&lt;font&gt;№ докум.&lt;/font&gt;&lt;/span&gt;" style="text;html=1;align=center;verticalAlign=middle;resizable=0;points=[];autosize=1;strokeColor=none;fillColor=none;fontFamily=GOST type B;labelBackgroundColor=none;fontStyle=2" parent="nFW0XrXpIKqKDF4PZtAt-1" vertex="1">
          <mxGeometry x="76.79275675675676" y="77.32352941176471" width="70" height="30" as="geometry" />
        </mxCell>
        <mxCell id="nFW0XrXpIKqKDF4PZtAt-36" value="&lt;font&gt;&lt;span&gt;Еленевич&lt;/span&gt;&lt;/font&gt;" style="text;html=1;align=center;verticalAlign=middle;resizable=0;points=[];autosize=1;strokeColor=none;fillColor=none;fontFamily=GOST type B;labelBackgroundColor=none;fontStyle=2" parent="nFW0XrXpIKqKDF4PZtAt-1" vertex="1">
          <mxGeometry x="62.82729729729729" y="98.41596638655462" width="70" height="30" as="geometry" />
        </mxCell>
        <mxCell id="nFW0XrXpIKqKDF4PZtAt-37" value="&lt;span&gt;&lt;font&gt;Писарчик&lt;/font&gt;&lt;/span&gt;" style="text;html=1;align=center;verticalAlign=middle;resizable=0;points=[];autosize=1;strokeColor=none;fillColor=none;fontFamily=GOST type B;labelBackgroundColor=none;fontStyle=2" parent="nFW0XrXpIKqKDF4PZtAt-1" vertex="1">
          <mxGeometry x="62.83593243243243" y="118.49159663865547" width="70" height="30" as="geometry" />
        </mxCell>
        <mxCell id="nFW0XrXpIKqKDF4PZtAt-38" value="&lt;font&gt;&lt;span&gt;Бруй&lt;/span&gt;&lt;/font&gt;" style="text;html=1;align=center;verticalAlign=middle;resizable=0;points=[];autosize=1;strokeColor=none;fillColor=none;fontFamily=GOST type B;labelBackgroundColor=none;fontStyle=2" parent="nFW0XrXpIKqKDF4PZtAt-1" vertex="1">
          <mxGeometry x="61.82154054054054" y="177.74789915966386" width="50" height="30" as="geometry" />
        </mxCell>
        <mxCell id="nFW0XrXpIKqKDF4PZtAt-39" value="&lt;font&gt;&lt;span&gt;Дата&lt;/span&gt;&lt;/font&gt;" style="text;html=1;align=center;verticalAlign=middle;resizable=0;points=[];autosize=1;strokeColor=none;fillColor=none;fontFamily=GOST type B;labelBackgroundColor=none;fontStyle=2" parent="nFW0XrXpIKqKDF4PZtAt-1" vertex="1">
          <mxGeometry x="214.39554054054054" y="77.32352941176471" width="50" height="30" as="geometry" />
        </mxCell>
        <mxCell id="nFW0XrXpIKqKDF4PZtAt-40" value="&lt;span style=&quot;&quot;&gt;1:1&lt;/span&gt;" style="text;html=1;align=center;verticalAlign=middle;resizable=0;points=[];autosize=1;strokeColor=none;fillColor=none;labelBackgroundColor=none;fontFamily=GOST type B;fontStyle=2" parent="nFW0XrXpIKqKDF4PZtAt-1" vertex="1">
          <mxGeometry x="683.0427027027027" y="94.39495798319328" width="30" height="30" as="geometry" />
        </mxCell>
        <mxCell id="nFW0XrXpIKqKDF4PZtAt-41" value="&lt;span&gt;Каферда ПИКС,&lt;br&gt;&amp;nbsp;гр. 083871&lt;/span&gt;" style="text;html=1;align=center;verticalAlign=middle;resizable=0;points=[];autosize=1;strokeColor=none;fillColor=none;labelBackgroundColor=none;fontFamily=GOST type B;fontStyle=2" parent="nFW0XrXpIKqKDF4PZtAt-1" vertex="1">
          <mxGeometry x="588.3161486486487" y="169.74789915966386" width="100" height="40" as="geometry" />
        </mxCell>
        <mxCell id="nFW0XrXpIKqKDF4PZtAt-42" value="&lt;i style=&quot;border-color: var(--border-color); font-size: 20px;&quot;&gt;&lt;font style=&quot;border-color: var(--border-color); font-size: 20px;&quot;&gt;ГУИР.08387-09 03 01&lt;/font&gt;&lt;/i&gt;" style="text;html=1;align=center;verticalAlign=middle;resizable=0;points=[];autosize=1;strokeColor=none;fillColor=none;labelBackgroundColor=none;fontFamily=GOST type B;fontStyle=2;fontSize=20;" parent="nFW0XrXpIKqKDF4PZtAt-1" vertex="1">
          <mxGeometry x="400" y="10" width="200" height="40" as="geometry" />
        </mxCell>
        <mxCell id="nFW0XrXpIKqKDF4PZtAt-43" value="&lt;span style=&quot;font-size: 20px;&quot;&gt;UML диаграмма классов&lt;/span&gt;" style="text;html=1;align=center;verticalAlign=middle;resizable=0;points=[];autosize=1;strokeColor=none;fillColor=none;labelBackgroundColor=none;fontFamily=GOST type B;fontStyle=2" parent="nFW0XrXpIKqKDF4PZtAt-1" vertex="1">
          <mxGeometry x="279.1364864864865" y="89.33193277310924" width="230" height="40" as="geometry" />
        </mxCell>
        <mxCell id="nFW0XrXpIKqKDF4PZtAt-44" value="&lt;span&gt;Формат А1&lt;/span&gt;" style="text;html=1;align=center;verticalAlign=middle;resizable=0;points=[];autosize=1;strokeColor=none;fillColor=none;spacing=0;labelBackgroundColor=none;fontFamily=GOST type B;fontStyle=2" parent="nFW0XrXpIKqKDF4PZtAt-1" vertex="1">
          <mxGeometry x="598.2873648648649" y="218.91596638655463" width="80" height="20" as="geometry" />
        </mxCell>
        <mxCell id="nFW0XrXpIKqKDF4PZtAt-45" value="Писарчик" style="text;html=1;align=center;verticalAlign=middle;resizable=0;points=[];autosize=1;strokeColor=none;fillColor=none;fontFamily=GOST type B;labelBackgroundColor=none;fontStyle=2" parent="nFW0XrXpIKqKDF4PZtAt-1" vertex="1">
          <mxGeometry x="62.83593243243243" y="137.57983193277312" width="70" height="30" as="geometry" />
        </mxCell>
        <mxCell id="nFW0XrXpIKqKDF4PZtAt-46" value="&lt;span&gt;&lt;font&gt;Пискун&lt;/font&gt;&lt;/span&gt;" style="text;html=1;align=center;verticalAlign=middle;resizable=0;points=[];autosize=1;strokeColor=none;fillColor=none;fontFamily=GOST type B;labelBackgroundColor=none;fontStyle=2" parent="nFW0XrXpIKqKDF4PZtAt-1" vertex="1">
          <mxGeometry x="61.82154054054054" y="197.83193277310923" width="60" height="30" as="geometry" />
        </mxCell>
        <mxCell id="nFW0XrXpIKqKDF4PZtAt-47" value="Ковалёва" style="text;html=1;align=center;verticalAlign=middle;resizable=0;points=[];autosize=1;strokeColor=none;fillColor=none;fontFamily=GOST type B;labelBackgroundColor=none;fontStyle=2" parent="nFW0XrXpIKqKDF4PZtAt-1" vertex="1">
          <mxGeometry x="62.82593243243218" y="158.65983193277316" width="70" height="30" as="geometry" />
        </mxCell>
        <mxCell id="nFW0XrXpIKqKDF4PZtAt-34" value="&lt;font&gt;&lt;span&gt;Утв&lt;/span&gt;&lt;/font&gt;." style="text;html=1;align=center;verticalAlign=middle;resizable=0;points=[];autosize=1;strokeColor=none;fillColor=none;labelBackgroundColor=none;fontFamily=GOST type B;fontStyle=2" parent="nFW0XrXpIKqKDF4PZtAt-1" vertex="1">
          <mxGeometry x="-5.976972972972817" y="197.8319327731092" width="50" height="30" as="geometry" />
        </mxCell>
        <mxCell id="nFW0XrXpIKqKDF4PZtAt-48" value="&lt;font style=&quot;font-size: 12px;&quot;&gt;&lt;font style=&quot;font-size: 12px;&quot;&gt;&lt;span&gt;Разраб&lt;/span&gt;&lt;/font&gt;.&lt;/font&gt;" style="text;html=1;align=center;verticalAlign=middle;resizable=0;points=[];autosize=1;strokeColor=none;fillColor=none;fontFamily=GOST type B;labelBackgroundColor=none;fontStyle=2" parent="1" vertex="1">
          <mxGeometry x="2520" y="1299" width="60" height="30" as="geometry" />
        </mxCell>
        <mxCell id="nFW0XrXpIKqKDF4PZtAt-49" value="&lt;span&gt;&lt;font&gt;Пров.&lt;/font&gt;&lt;/span&gt;" style="text;html=1;align=center;verticalAlign=middle;resizable=0;points=[];autosize=1;strokeColor=none;fillColor=none;fontFamily=GOST type B;labelBackgroundColor=none;fontStyle=2" parent="1" vertex="1">
          <mxGeometry x="2520" y="1319" width="50" height="30" as="geometry" />
        </mxCell>
        <mxCell id="nFW0XrXpIKqKDF4PZtAt-50" value="&lt;span&gt;&lt;font&gt;Подп&lt;/font&gt;&lt;/span&gt;." style="text;html=1;align=center;verticalAlign=middle;resizable=0;points=[];autosize=1;strokeColor=none;fillColor=none;fontFamily=GOST type B;labelBackgroundColor=none;fontStyle=2" parent="1" vertex="1">
          <mxGeometry x="2685" y="1278" width="50" height="30" as="geometry" />
        </mxCell>
        <mxCell id="nFW0XrXpIKqKDF4PZtAt-51" value="&lt;span&gt;Лит.&lt;/span&gt;" style="text;html=1;align=center;verticalAlign=middle;resizable=0;points=[];autosize=1;strokeColor=none;fillColor=none;labelBackgroundColor=none;fontFamily=GOST type B;fontStyle=2" parent="1" vertex="1">
          <mxGeometry x="3065" y="1259" width="50" height="30" as="geometry" />
        </mxCell>
        <mxCell id="nFW0XrXpIKqKDF4PZtAt-52" value="&lt;span&gt;&lt;font&gt;Масса&lt;/font&gt;&lt;/span&gt;" style="text;html=1;align=center;verticalAlign=middle;resizable=0;points=[];autosize=1;strokeColor=none;fillColor=none;labelBackgroundColor=none;fontFamily=GOST type B;fontStyle=2" parent="1" vertex="1">
          <mxGeometry x="3125" y="1259" width="50" height="30" as="geometry" />
        </mxCell>
        <mxCell id="nFW0XrXpIKqKDF4PZtAt-53" value="&lt;span&gt;Масштаб&lt;/span&gt;" style="text;html=1;align=center;verticalAlign=middle;resizable=0;points=[];autosize=1;strokeColor=none;fillColor=none;labelBackgroundColor=none;fontFamily=GOST type B;fontStyle=2" parent="1" vertex="1">
          <mxGeometry x="3185" y="1259" width="70" height="30" as="geometry" />
        </mxCell>
        <mxCell id="nFW0XrXpIKqKDF4PZtAt-54" value="&lt;span&gt;Т&lt;/span&gt;" style="text;html=1;align=center;verticalAlign=middle;resizable=0;points=[];autosize=1;strokeColor=none;fillColor=none;labelBackgroundColor=none;fontFamily=GOST type B;fontStyle=2" parent="1" vertex="1">
          <mxGeometry x="3074" y="1295" width="30" height="30" as="geometry" />
        </mxCell>
        <mxCell id="nFW0XrXpIKqKDF4PZtAt-55" value="&lt;span&gt;Лист&lt;/span&gt;" style="text;html=1;align=center;verticalAlign=middle;resizable=0;points=[];autosize=1;strokeColor=none;fillColor=none;labelBackgroundColor=none;fontFamily=GOST type B;fontStyle=2" parent="1" vertex="1">
          <mxGeometry x="3065" y="1339" width="50" height="30" as="geometry" />
        </mxCell>
        <mxCell id="nFW0XrXpIKqKDF4PZtAt-56" value="&lt;span&gt;Листов&lt;/span&gt;" style="text;html=1;align=center;verticalAlign=middle;resizable=0;points=[];autosize=1;strokeColor=none;fillColor=none;labelBackgroundColor=none;fontFamily=GOST type B;fontStyle=2" parent="1" vertex="1">
          <mxGeometry x="3167" y="1337" width="60" height="30" as="geometry" />
        </mxCell>
        <mxCell id="nFW0XrXpIKqKDF4PZtAt-57" value="" style="endArrow=none;html=1;rounded=0;" parent="1" edge="1">
          <mxGeometry width="50" height="50" relative="1" as="geometry">
            <mxPoint x="2520" y="1421" as="sourcePoint" />
            <mxPoint x="3260" y="1421" as="targetPoint" />
          </mxGeometry>
        </mxCell>
        <mxCell id="nFW0XrXpIKqKDF4PZtAt-58" value="" style="endArrow=none;html=1;rounded=0;" parent="1" edge="1">
          <mxGeometry width="50" height="50" relative="1" as="geometry">
            <mxPoint x="3260" y="1199.8" as="sourcePoint" />
            <mxPoint x="3260" y="1420" as="targetPoint" />
          </mxGeometry>
        </mxCell>
        <mxCell id="nFW0XrXpIKqKDF4PZtAt-59" value="" style="group;labelBackgroundColor=none;fontFamily=GOST type B;fontStyle=2" parent="1" vertex="1" connectable="0">
          <mxGeometry x="2520" y="1480.2" width="737.87" height="239" as="geometry" />
        </mxCell>
        <mxCell id="nFW0XrXpIKqKDF4PZtAt-60" value="" style="endArrow=none;html=1;rounded=0;labelBackgroundColor=none;fontColor=default;fontFamily=GOST type B;fontStyle=2" parent="nFW0XrXpIKqKDF4PZtAt-59" edge="1">
          <mxGeometry width="50" height="50" relative="1" as="geometry">
            <mxPoint y="220.92436974789916" as="sourcePoint" />
            <mxPoint as="targetPoint" />
          </mxGeometry>
        </mxCell>
        <mxCell id="nFW0XrXpIKqKDF4PZtAt-61" value="" style="endArrow=none;html=1;rounded=0;labelBackgroundColor=none;fontColor=default;fontFamily=GOST type B;fontStyle=2" parent="nFW0XrXpIKqKDF4PZtAt-59" edge="1">
          <mxGeometry width="50" height="50" relative="1" as="geometry">
            <mxPoint as="sourcePoint" />
            <mxPoint x="739.9938690540542" y="-1.004201680672269" as="targetPoint" />
          </mxGeometry>
        </mxCell>
        <mxCell id="nFW0XrXpIKqKDF4PZtAt-62" value="" style="endArrow=none;html=1;rounded=0;labelBackgroundColor=none;fontColor=default;fontFamily=GOST type B;fontStyle=2" parent="nFW0XrXpIKqKDF4PZtAt-59" edge="1">
          <mxGeometry width="50" height="50" relative="1" as="geometry">
            <mxPoint x="538.4456756756757" y="221" as="sourcePoint" />
            <mxPoint x="538.4456756756757" y="60" as="targetPoint" />
          </mxGeometry>
        </mxCell>
        <mxCell id="nFW0XrXpIKqKDF4PZtAt-63" value="" style="endArrow=none;html=1;rounded=0;labelBackgroundColor=none;fontColor=default;fontFamily=GOST type B;fontStyle=2" parent="nFW0XrXpIKqKDF4PZtAt-59" edge="1">
          <mxGeometry width="50" height="50" relative="1" as="geometry">
            <mxPoint x="259.2516216216216" y="220.92436974789916" as="sourcePoint" />
            <mxPoint x="259.2516216216216" as="targetPoint" />
          </mxGeometry>
        </mxCell>
        <mxCell id="nFW0XrXpIKqKDF4PZtAt-64" value="" style="endArrow=none;html=1;rounded=0;labelBackgroundColor=none;fontColor=default;fontFamily=GOST type B;fontStyle=2" parent="nFW0XrXpIKqKDF4PZtAt-59" edge="1">
          <mxGeometry width="50" height="50" relative="1" as="geometry">
            <mxPoint x="219.36675675675676" y="220.92436974789916" as="sourcePoint" />
            <mxPoint x="219.36675675675676" as="targetPoint" />
          </mxGeometry>
        </mxCell>
        <mxCell id="nFW0XrXpIKqKDF4PZtAt-65" value="" style="endArrow=none;html=1;rounded=0;labelBackgroundColor=none;fontColor=default;fontFamily=GOST type B;fontStyle=2" parent="nFW0XrXpIKqKDF4PZtAt-59" edge="1">
          <mxGeometry width="50" height="50" relative="1" as="geometry">
            <mxPoint x="160" y="220" as="sourcePoint" />
            <mxPoint x="159.53945945945947" y="0.010042016806941884" as="targetPoint" />
          </mxGeometry>
        </mxCell>
        <mxCell id="nFW0XrXpIKqKDF4PZtAt-66" value="" style="endArrow=none;html=1;rounded=0;labelBackgroundColor=none;fontColor=default;fontFamily=GOST type B;fontStyle=2" parent="nFW0XrXpIKqKDF4PZtAt-59" edge="1">
          <mxGeometry width="50" height="50" relative="1" as="geometry">
            <mxPoint x="66.6376379729729" y="220.93441176470608" as="sourcePoint" />
            <mxPoint x="66.6376379729729" y="0.010042016806941884" as="targetPoint" />
          </mxGeometry>
        </mxCell>
        <mxCell id="nFW0XrXpIKqKDF4PZtAt-67" value="" style="endArrow=none;html=1;rounded=0;labelBackgroundColor=none;fontColor=default;fontFamily=GOST type B;fontStyle=2" parent="nFW0XrXpIKqKDF4PZtAt-59" edge="1">
          <mxGeometry width="50" height="50" relative="1" as="geometry">
            <mxPoint x="22.933797297297296" y="100.42016806722688" as="sourcePoint" />
            <mxPoint x="22.933797297297296" as="targetPoint" />
          </mxGeometry>
        </mxCell>
        <mxCell id="nFW0XrXpIKqKDF4PZtAt-68" value="" style="endArrow=none;html=1;rounded=0;labelBackgroundColor=none;fontColor=default;fontFamily=GOST type B;fontStyle=2" parent="nFW0XrXpIKqKDF4PZtAt-59" edge="1">
          <mxGeometry width="50" height="50" relative="1" as="geometry">
            <mxPoint x="259.2516216216216" y="20.084033613445378" as="sourcePoint" />
            <mxPoint y="20.084033613445378" as="targetPoint" />
          </mxGeometry>
        </mxCell>
        <mxCell id="nFW0XrXpIKqKDF4PZtAt-69" value="" style="endArrow=none;html=1;rounded=0;labelBackgroundColor=none;fontColor=default;fontFamily=GOST type B;fontStyle=2" parent="nFW0XrXpIKqKDF4PZtAt-59" edge="1">
          <mxGeometry width="50" height="50" relative="1" as="geometry">
            <mxPoint x="259.2516216216216" y="40.168067226890756" as="sourcePoint" />
            <mxPoint y="40.168067226890756" as="targetPoint" />
          </mxGeometry>
        </mxCell>
        <mxCell id="nFW0XrXpIKqKDF4PZtAt-70" value="" style="endArrow=none;html=1;rounded=0;labelBackgroundColor=none;fontColor=default;fontFamily=GOST type B;fontStyle=2" parent="nFW0XrXpIKqKDF4PZtAt-59" edge="1">
          <mxGeometry width="50" height="50" relative="1" as="geometry">
            <mxPoint x="259.2516216216216" y="60.252100840336134" as="sourcePoint" />
            <mxPoint y="60.252100840336134" as="targetPoint" />
          </mxGeometry>
        </mxCell>
        <mxCell id="nFW0XrXpIKqKDF4PZtAt-71" value="" style="endArrow=none;html=1;rounded=0;fontFamily=GOST type B;labelBackgroundColor=none;fontColor=default;fontStyle=2" parent="nFW0XrXpIKqKDF4PZtAt-59" edge="1">
          <mxGeometry width="50" height="50" relative="1" as="geometry">
            <mxPoint x="259.2516216216216" y="80.33613445378151" as="sourcePoint" />
            <mxPoint y="80.33613445378151" as="targetPoint" />
          </mxGeometry>
        </mxCell>
        <mxCell id="nFW0XrXpIKqKDF4PZtAt-72" value="" style="endArrow=none;html=1;rounded=0;fontFamily=GOST type B;labelBackgroundColor=none;fontColor=default;fontStyle=2" parent="nFW0XrXpIKqKDF4PZtAt-59" edge="1">
          <mxGeometry width="50" height="50" relative="1" as="geometry">
            <mxPoint x="259.2516216216216" y="100.42016806722688" as="sourcePoint" />
            <mxPoint y="100.42016806722688" as="targetPoint" />
          </mxGeometry>
        </mxCell>
        <mxCell id="nFW0XrXpIKqKDF4PZtAt-73" value="" style="endArrow=none;html=1;rounded=0;fontFamily=GOST type B;labelBackgroundColor=none;fontColor=default;fontStyle=2" parent="nFW0XrXpIKqKDF4PZtAt-59" edge="1">
          <mxGeometry width="50" height="50" relative="1" as="geometry">
            <mxPoint x="259.2516216216216" y="120.50420168067227" as="sourcePoint" />
            <mxPoint y="120.50420168067227" as="targetPoint" />
          </mxGeometry>
        </mxCell>
        <mxCell id="nFW0XrXpIKqKDF4PZtAt-74" value="" style="endArrow=none;html=1;rounded=0;fontFamily=GOST type B;labelBackgroundColor=none;fontColor=default;fontStyle=2" parent="nFW0XrXpIKqKDF4PZtAt-59" edge="1">
          <mxGeometry width="50" height="50" relative="1" as="geometry">
            <mxPoint x="259.2516216216216" y="140.58823529411765" as="sourcePoint" />
            <mxPoint y="140.58823529411765" as="targetPoint" />
          </mxGeometry>
        </mxCell>
        <mxCell id="nFW0XrXpIKqKDF4PZtAt-75" value="" style="endArrow=none;html=1;rounded=0;fontFamily=GOST type B;labelBackgroundColor=none;fontColor=default;fontStyle=2" parent="nFW0XrXpIKqKDF4PZtAt-59" edge="1">
          <mxGeometry width="50" height="50" relative="1" as="geometry">
            <mxPoint x="259.2516216216216" y="160.67226890756302" as="sourcePoint" />
            <mxPoint y="160.67226890756302" as="targetPoint" />
          </mxGeometry>
        </mxCell>
        <mxCell id="nFW0XrXpIKqKDF4PZtAt-76" value="" style="endArrow=none;html=1;rounded=0;fontFamily=GOST type B;labelBackgroundColor=none;fontColor=default;fontStyle=2" parent="nFW0XrXpIKqKDF4PZtAt-59" edge="1">
          <mxGeometry width="50" height="50" relative="1" as="geometry">
            <mxPoint x="259.2516216216216" y="180.7563025210084" as="sourcePoint" />
            <mxPoint y="180.7563025210084" as="targetPoint" />
          </mxGeometry>
        </mxCell>
        <mxCell id="nFW0XrXpIKqKDF4PZtAt-77" value="" style="endArrow=none;html=1;rounded=0;fontFamily=GOST type B;labelBackgroundColor=none;fontColor=default;fontStyle=2" parent="nFW0XrXpIKqKDF4PZtAt-59" edge="1">
          <mxGeometry width="50" height="50" relative="1" as="geometry">
            <mxPoint x="259.2516216216216" y="200.84033613445376" as="sourcePoint" />
            <mxPoint y="200.84033613445376" as="targetPoint" />
          </mxGeometry>
        </mxCell>
        <mxCell id="nFW0XrXpIKqKDF4PZtAt-78" value="" style="endArrow=none;html=1;rounded=0;exitX=0.93;exitY=0.476;exitDx=0;exitDy=0;exitPerimeter=0;labelBackgroundColor=none;fontColor=default;fontFamily=GOST type B;fontStyle=2" parent="nFW0XrXpIKqKDF4PZtAt-59" edge="1">
          <mxGeometry width="50" height="50" relative="1" as="geometry">
            <mxPoint x="737.1260276156759" y="60.261439915966555" as="sourcePoint" />
            <mxPoint x="259.2516216216216" y="60.252100840336134" as="targetPoint" />
          </mxGeometry>
        </mxCell>
        <mxCell id="nFW0XrXpIKqKDF4PZtAt-79" value="" style="endArrow=none;html=1;rounded=0;exitX=0.93;exitY=0.476;exitDx=0;exitDy=0;exitPerimeter=0;labelBackgroundColor=none;fontColor=default;fontFamily=GOST type B;fontStyle=2" parent="nFW0XrXpIKqKDF4PZtAt-59" edge="1">
          <mxGeometry width="50" height="50" relative="1" as="geometry">
            <mxPoint x="737.1359988318924" y="160.68160798319343" as="sourcePoint" />
            <mxPoint x="259.26159283783807" y="160.67226890756302" as="targetPoint" />
          </mxGeometry>
        </mxCell>
        <mxCell id="nFW0XrXpIKqKDF4PZtAt-80" value="" style="endArrow=none;html=1;rounded=0;labelBackgroundColor=none;fontColor=default;fontFamily=GOST type B;fontStyle=2" parent="nFW0XrXpIKqKDF4PZtAt-59" edge="1">
          <mxGeometry width="50" height="50" relative="1" as="geometry">
            <mxPoint x="737.87" y="80.33613445378151" as="sourcePoint" />
            <mxPoint x="538.4456756756757" y="80.33613445378151" as="targetPoint" />
          </mxGeometry>
        </mxCell>
        <mxCell id="nFW0XrXpIKqKDF4PZtAt-81" value="" style="endArrow=none;html=1;rounded=0;labelBackgroundColor=none;fontColor=default;fontFamily=GOST type B;fontStyle=2" parent="nFW0XrXpIKqKDF4PZtAt-59" edge="1">
          <mxGeometry width="50" height="50" relative="1" as="geometry">
            <mxPoint x="737.1321300000002" y="140.58823529411765" as="sourcePoint" />
            <mxPoint x="538.4456756756757" y="140.58823529411765" as="targetPoint" />
          </mxGeometry>
        </mxCell>
        <mxCell id="nFW0XrXpIKqKDF4PZtAt-82" value="" style="endArrow=none;html=1;rounded=0;labelBackgroundColor=none;fontColor=default;fontFamily=GOST type B;fontStyle=2" parent="nFW0XrXpIKqKDF4PZtAt-59" edge="1">
          <mxGeometry width="50" height="50" relative="1" as="geometry">
            <mxPoint x="558.3881081081081" y="140.58823529411765" as="sourcePoint" />
            <mxPoint x="558.3881081081081" y="80.33613445378151" as="targetPoint" />
          </mxGeometry>
        </mxCell>
        <mxCell id="nFW0XrXpIKqKDF4PZtAt-83" value="" style="endArrow=none;html=1;rounded=0;labelBackgroundColor=none;fontColor=default;fontFamily=GOST type B;fontStyle=2" parent="nFW0XrXpIKqKDF4PZtAt-59" edge="1">
          <mxGeometry width="50" height="50" relative="1" as="geometry">
            <mxPoint x="578.3305405405406" y="140.58823529411765" as="sourcePoint" />
            <mxPoint x="578.3305405405406" y="80.33613445378151" as="targetPoint" />
          </mxGeometry>
        </mxCell>
        <mxCell id="nFW0XrXpIKqKDF4PZtAt-84" value="" style="endArrow=none;html=1;rounded=0;labelBackgroundColor=none;fontColor=default;fontFamily=GOST type B;fontStyle=2" parent="nFW0XrXpIKqKDF4PZtAt-59" edge="1">
          <mxGeometry width="50" height="50" relative="1" as="geometry">
            <mxPoint x="598.272972972973" y="140.58823529411765" as="sourcePoint" />
            <mxPoint x="598.272972972973" y="60.252100840336134" as="targetPoint" />
          </mxGeometry>
        </mxCell>
        <mxCell id="nFW0XrXpIKqKDF4PZtAt-85" value="" style="endArrow=none;html=1;rounded=0;labelBackgroundColor=none;fontColor=default;fontFamily=GOST type B;fontStyle=2" parent="nFW0XrXpIKqKDF4PZtAt-59" edge="1">
          <mxGeometry width="50" height="50" relative="1" as="geometry">
            <mxPoint x="662.0887567567568" y="140.58823529411765" as="sourcePoint" />
            <mxPoint x="662.0887567567568" y="60.252100840336134" as="targetPoint" />
          </mxGeometry>
        </mxCell>
        <mxCell id="nFW0XrXpIKqKDF4PZtAt-86" value="" style="endArrow=none;html=1;rounded=0;labelBackgroundColor=none;fontColor=default;fontFamily=GOST type B;fontStyle=2" parent="nFW0XrXpIKqKDF4PZtAt-59" edge="1">
          <mxGeometry width="50" height="50" relative="1" as="geometry">
            <mxPoint x="618.2154054054055" y="160.67226890756302" as="sourcePoint" />
            <mxPoint x="618.2154054054055" y="140.58823529411765" as="targetPoint" />
          </mxGeometry>
        </mxCell>
        <mxCell id="nFW0XrXpIKqKDF4PZtAt-87" value="&lt;font style=&quot;font-size: 10px;&quot;&gt;&lt;span&gt;Изм.&lt;/span&gt;&lt;/font&gt;" style="text;html=1;align=center;verticalAlign=middle;resizable=0;points=[];autosize=1;strokeColor=none;fillColor=none;fontFamily=GOST type B;labelBackgroundColor=none;fontStyle=2" parent="nFW0XrXpIKqKDF4PZtAt-59" vertex="1">
          <mxGeometry x="-7.976972972972973" y="77.32352941176471" width="40" height="30" as="geometry" />
        </mxCell>
        <mxCell id="nFW0XrXpIKqKDF4PZtAt-88" value="&lt;font size=&quot;1&quot;&gt;&lt;span style=&quot;font-size: 12px;&quot;&gt;Л.&lt;/span&gt;&lt;/font&gt;" style="text;html=1;align=center;verticalAlign=middle;resizable=0;points=[];autosize=1;strokeColor=none;fillColor=none;fontFamily=GOST type B;labelBackgroundColor=none;fontStyle=2" parent="nFW0XrXpIKqKDF4PZtAt-59" vertex="1">
          <mxGeometry x="41.8935" y="77.32352941176471" width="30" height="30" as="geometry" />
        </mxCell>
        <mxCell id="nFW0XrXpIKqKDF4PZtAt-89" value="&lt;font&gt;&lt;span&gt;Т.Контр.&lt;/span&gt;&lt;/font&gt;" style="text;html=1;align=center;verticalAlign=middle;resizable=0;points=[];autosize=1;strokeColor=none;fillColor=none;fontFamily=GOST type B;labelBackgroundColor=none;fontStyle=2" parent="nFW0XrXpIKqKDF4PZtAt-59" vertex="1">
          <mxGeometry x="-6.985608108108108" y="138.57983193277312" width="70" height="30" as="geometry" />
        </mxCell>
        <mxCell id="nFW0XrXpIKqKDF4PZtAt-90" value="&lt;font&gt;&lt;span&gt;Рец&lt;/span&gt;&lt;/font&gt;." style="text;html=1;align=center;verticalAlign=middle;resizable=0;points=[];autosize=1;strokeColor=none;fillColor=none;fontFamily=GOST type B;labelBackgroundColor=none;fontStyle=2" parent="nFW0XrXpIKqKDF4PZtAt-59" vertex="1">
          <mxGeometry x="-0.9769729729729733" y="158.6638655462185" width="40" height="30" as="geometry" />
        </mxCell>
        <mxCell id="nFW0XrXpIKqKDF4PZtAt-91" value="&lt;span&gt;&lt;font&gt;Н. контр.&lt;/font&gt;&lt;/span&gt;" style="text;html=1;align=center;verticalAlign=middle;resizable=0;points=[];autosize=1;strokeColor=none;fillColor=none;fontFamily=GOST type B;labelBackgroundColor=none;fontStyle=2" parent="nFW0XrXpIKqKDF4PZtAt-59" vertex="1">
          <mxGeometry x="-2.9769729729729733" y="178.74789915966386" width="70" height="30" as="geometry" />
        </mxCell>
        <mxCell id="nFW0XrXpIKqKDF4PZtAt-92" value="&lt;span&gt;&lt;font&gt;№ докум.&lt;/font&gt;&lt;/span&gt;" style="text;html=1;align=center;verticalAlign=middle;resizable=0;points=[];autosize=1;strokeColor=none;fillColor=none;fontFamily=GOST type B;labelBackgroundColor=none;fontStyle=2" parent="nFW0XrXpIKqKDF4PZtAt-59" vertex="1">
          <mxGeometry x="76.79275675675676" y="77.32352941176471" width="70" height="30" as="geometry" />
        </mxCell>
        <mxCell id="nFW0XrXpIKqKDF4PZtAt-93" value="Еленевич" style="text;html=1;align=center;verticalAlign=middle;resizable=0;points=[];autosize=1;strokeColor=none;fillColor=none;fontFamily=GOST type B;labelBackgroundColor=none;fontStyle=2" parent="nFW0XrXpIKqKDF4PZtAt-59" vertex="1">
          <mxGeometry x="61.82729729729729" y="98.41596638655462" width="70" height="30" as="geometry" />
        </mxCell>
        <mxCell id="nFW0XrXpIKqKDF4PZtAt-94" value="&lt;span&gt;&lt;font&gt;Писарчик&lt;/font&gt;&lt;/span&gt;" style="text;html=1;align=center;verticalAlign=middle;resizable=0;points=[];autosize=1;strokeColor=none;fillColor=none;fontFamily=GOST type B;labelBackgroundColor=none;fontStyle=2" parent="nFW0XrXpIKqKDF4PZtAt-59" vertex="1">
          <mxGeometry x="61.83593243243243" y="117.49159663865547" width="70" height="30" as="geometry" />
        </mxCell>
        <mxCell id="nFW0XrXpIKqKDF4PZtAt-95" value="&lt;font&gt;&lt;span&gt;Бруй&lt;/span&gt;&lt;/font&gt;" style="text;html=1;align=center;verticalAlign=middle;resizable=0;points=[];autosize=1;strokeColor=none;fillColor=none;fontFamily=GOST type B;labelBackgroundColor=none;fontStyle=2" parent="nFW0XrXpIKqKDF4PZtAt-59" vertex="1">
          <mxGeometry x="61.82154054054054" y="177.74789915966386" width="50" height="30" as="geometry" />
        </mxCell>
        <mxCell id="nFW0XrXpIKqKDF4PZtAt-96" value="&lt;font&gt;&lt;span&gt;Дата&lt;/span&gt;&lt;/font&gt;" style="text;html=1;align=center;verticalAlign=middle;resizable=0;points=[];autosize=1;strokeColor=none;fillColor=none;fontFamily=GOST type B;labelBackgroundColor=none;fontStyle=2" parent="nFW0XrXpIKqKDF4PZtAt-59" vertex="1">
          <mxGeometry x="214.39554054054054" y="77.32352941176471" width="50" height="30" as="geometry" />
        </mxCell>
        <mxCell id="nFW0XrXpIKqKDF4PZtAt-97" value="&lt;span style=&quot;&quot;&gt;1:1&lt;/span&gt;" style="text;html=1;align=center;verticalAlign=middle;resizable=0;points=[];autosize=1;strokeColor=none;fillColor=none;labelBackgroundColor=none;fontFamily=GOST type B;fontStyle=2" parent="nFW0XrXpIKqKDF4PZtAt-59" vertex="1">
          <mxGeometry x="683.0427027027027" y="94.39495798319328" width="30" height="30" as="geometry" />
        </mxCell>
        <mxCell id="nFW0XrXpIKqKDF4PZtAt-98" value="&lt;span&gt;Каферда ПИКС,&lt;br&gt;&amp;nbsp;гр. 083871&lt;/span&gt;" style="text;html=1;align=center;verticalAlign=middle;resizable=0;points=[];autosize=1;strokeColor=none;fillColor=none;labelBackgroundColor=none;fontFamily=GOST type B;fontStyle=2" parent="nFW0XrXpIKqKDF4PZtAt-59" vertex="1">
          <mxGeometry x="588.3161486486487" y="169.74789915966386" width="100" height="40" as="geometry" />
        </mxCell>
        <mxCell id="nFW0XrXpIKqKDF4PZtAt-99" value="&lt;i style=&quot;border-color: var(--border-color);&quot;&gt;&lt;font style=&quot;border-color: var(--border-color); font-size: 20px;&quot;&gt;ГУИР.08387-09 04 01&lt;/font&gt;&lt;/i&gt;" style="text;html=1;align=center;verticalAlign=middle;resizable=0;points=[];autosize=1;strokeColor=none;fillColor=none;labelBackgroundColor=none;fontFamily=GOST type B;fontStyle=2" parent="nFW0XrXpIKqKDF4PZtAt-59" vertex="1">
          <mxGeometry x="401.3133108108108" y="10.795630252100842" width="200" height="40" as="geometry" />
        </mxCell>
        <mxCell id="nFW0XrXpIKqKDF4PZtAt-100" value="&lt;span style=&quot;font-size: 20px;&quot;&gt;UML диаграмма вариантов &lt;br&gt;использования&lt;/span&gt;" style="text;html=1;align=center;verticalAlign=middle;resizable=0;points=[];autosize=1;strokeColor=none;fillColor=none;labelBackgroundColor=none;fontFamily=GOST type B;fontStyle=2" parent="nFW0XrXpIKqKDF4PZtAt-59" vertex="1">
          <mxGeometry x="269.1364864864865" y="79.33193277310924" width="250" height="60" as="geometry" />
        </mxCell>
        <mxCell id="nFW0XrXpIKqKDF4PZtAt-101" value="&lt;span&gt;Формат А1&lt;/span&gt;" style="text;html=1;align=center;verticalAlign=middle;resizable=0;points=[];autosize=1;strokeColor=none;fillColor=none;spacing=0;labelBackgroundColor=none;fontFamily=GOST type B;fontStyle=2" parent="nFW0XrXpIKqKDF4PZtAt-59" vertex="1">
          <mxGeometry x="598.2873648648649" y="218.91596638655463" width="80" height="20" as="geometry" />
        </mxCell>
        <mxCell id="nFW0XrXpIKqKDF4PZtAt-102" value="Писарчик" style="text;html=1;align=center;verticalAlign=middle;resizable=0;points=[];autosize=1;strokeColor=none;fillColor=none;fontFamily=GOST type B;labelBackgroundColor=none;fontStyle=2" parent="nFW0XrXpIKqKDF4PZtAt-59" vertex="1">
          <mxGeometry x="61.83593243243243" y="138.57983193277312" width="70" height="30" as="geometry" />
        </mxCell>
        <mxCell id="nFW0XrXpIKqKDF4PZtAt-103" value="&lt;span&gt;&lt;font&gt;Пискун&lt;/font&gt;&lt;/span&gt;" style="text;html=1;align=center;verticalAlign=middle;resizable=0;points=[];autosize=1;strokeColor=none;fillColor=none;fontFamily=GOST type B;labelBackgroundColor=none;fontStyle=2" parent="nFW0XrXpIKqKDF4PZtAt-59" vertex="1">
          <mxGeometry x="60.82154054054054" y="197.83193277310923" width="60" height="30" as="geometry" />
        </mxCell>
        <mxCell id="nFW0XrXpIKqKDF4PZtAt-104" value="Ковалёва" style="text;html=1;align=center;verticalAlign=middle;resizable=0;points=[];autosize=1;strokeColor=none;fillColor=none;fontFamily=GOST type B;labelBackgroundColor=none;fontStyle=2" parent="nFW0XrXpIKqKDF4PZtAt-59" vertex="1">
          <mxGeometry x="61.82593243243218" y="158.65983193277316" width="70" height="30" as="geometry" />
        </mxCell>
        <mxCell id="nFW0XrXpIKqKDF4PZtAt-105" value="&lt;font&gt;&lt;span&gt;Утв&lt;/span&gt;&lt;/font&gt;." style="text;html=1;align=center;verticalAlign=middle;resizable=0;points=[];autosize=1;strokeColor=none;fillColor=none;labelBackgroundColor=none;fontFamily=GOST type B;fontStyle=2" parent="nFW0XrXpIKqKDF4PZtAt-59" vertex="1">
          <mxGeometry x="-5.976972972972817" y="198.8319327731092" width="50" height="30" as="geometry" />
        </mxCell>
        <mxCell id="nFW0XrXpIKqKDF4PZtAt-106" value="&lt;font style=&quot;font-size: 12px;&quot;&gt;&lt;font style=&quot;font-size: 12px;&quot;&gt;&lt;span&gt;Разраб&lt;/span&gt;&lt;/font&gt;.&lt;/font&gt;" style="text;html=1;align=center;verticalAlign=middle;resizable=0;points=[];autosize=1;strokeColor=none;fillColor=none;fontFamily=GOST type B;labelBackgroundColor=none;fontStyle=2" parent="1" vertex="1">
          <mxGeometry x="2517" y="1579.2" width="60" height="30" as="geometry" />
        </mxCell>
        <mxCell id="nFW0XrXpIKqKDF4PZtAt-107" value="&lt;span&gt;&lt;font&gt;Пров.&lt;/font&gt;&lt;/span&gt;" style="text;html=1;align=center;verticalAlign=middle;resizable=0;points=[];autosize=1;strokeColor=none;fillColor=none;fontFamily=GOST type B;labelBackgroundColor=none;fontStyle=2" parent="1" vertex="1">
          <mxGeometry x="2517" y="1599.2" width="50" height="30" as="geometry" />
        </mxCell>
        <mxCell id="nFW0XrXpIKqKDF4PZtAt-108" value="&lt;span&gt;&lt;font&gt;Подп&lt;/font&gt;&lt;/span&gt;." style="text;html=1;align=center;verticalAlign=middle;resizable=0;points=[];autosize=1;strokeColor=none;fillColor=none;fontFamily=GOST type B;labelBackgroundColor=none;fontStyle=2" parent="1" vertex="1">
          <mxGeometry x="2685" y="1558.2" width="50" height="30" as="geometry" />
        </mxCell>
        <mxCell id="nFW0XrXpIKqKDF4PZtAt-109" value="&lt;span&gt;Лит.&lt;/span&gt;" style="text;html=1;align=center;verticalAlign=middle;resizable=0;points=[];autosize=1;strokeColor=none;fillColor=none;labelBackgroundColor=none;fontFamily=GOST type B;fontStyle=2" parent="1" vertex="1">
          <mxGeometry x="3065" y="1539.2" width="50" height="30" as="geometry" />
        </mxCell>
        <mxCell id="nFW0XrXpIKqKDF4PZtAt-110" value="&lt;span&gt;&lt;font&gt;Масса&lt;/font&gt;&lt;/span&gt;" style="text;html=1;align=center;verticalAlign=middle;resizable=0;points=[];autosize=1;strokeColor=none;fillColor=none;labelBackgroundColor=none;fontFamily=GOST type B;fontStyle=2" parent="1" vertex="1">
          <mxGeometry x="3125" y="1539.2" width="50" height="30" as="geometry" />
        </mxCell>
        <mxCell id="nFW0XrXpIKqKDF4PZtAt-111" value="&lt;span&gt;Масштаб&lt;/span&gt;" style="text;html=1;align=center;verticalAlign=middle;resizable=0;points=[];autosize=1;strokeColor=none;fillColor=none;labelBackgroundColor=none;fontFamily=GOST type B;fontStyle=2" parent="1" vertex="1">
          <mxGeometry x="3185" y="1539.2" width="70" height="30" as="geometry" />
        </mxCell>
        <mxCell id="nFW0XrXpIKqKDF4PZtAt-112" value="&lt;span&gt;Т&lt;/span&gt;" style="text;html=1;align=center;verticalAlign=middle;resizable=0;points=[];autosize=1;strokeColor=none;fillColor=none;labelBackgroundColor=none;fontFamily=GOST type B;fontStyle=2" parent="1" vertex="1">
          <mxGeometry x="3074" y="1575.2" width="30" height="30" as="geometry" />
        </mxCell>
        <mxCell id="nFW0XrXpIKqKDF4PZtAt-113" value="&lt;span&gt;Лист&lt;/span&gt;" style="text;html=1;align=center;verticalAlign=middle;resizable=0;points=[];autosize=1;strokeColor=none;fillColor=none;labelBackgroundColor=none;fontFamily=GOST type B;fontStyle=2" parent="1" vertex="1">
          <mxGeometry x="3065" y="1619.2" width="50" height="30" as="geometry" />
        </mxCell>
        <mxCell id="nFW0XrXpIKqKDF4PZtAt-114" value="&lt;span&gt;Листов&lt;/span&gt;" style="text;html=1;align=center;verticalAlign=middle;resizable=0;points=[];autosize=1;strokeColor=none;fillColor=none;labelBackgroundColor=none;fontFamily=GOST type B;fontStyle=2" parent="1" vertex="1">
          <mxGeometry x="3167" y="1617.2" width="60" height="30" as="geometry" />
        </mxCell>
        <mxCell id="nFW0XrXpIKqKDF4PZtAt-115" value="" style="endArrow=none;html=1;rounded=0;" parent="1" edge="1">
          <mxGeometry width="50" height="50" relative="1" as="geometry">
            <mxPoint x="2520" y="1701.2" as="sourcePoint" />
            <mxPoint x="3260" y="1701.2" as="targetPoint" />
          </mxGeometry>
        </mxCell>
        <mxCell id="nFW0XrXpIKqKDF4PZtAt-116" value="" style="endArrow=none;html=1;rounded=0;" parent="1" edge="1">
          <mxGeometry width="50" height="50" relative="1" as="geometry">
            <mxPoint x="3260" y="1480" as="sourcePoint" />
            <mxPoint x="3260" y="1700.2" as="targetPoint" />
          </mxGeometry>
        </mxCell>
        <mxCell id="nFW0XrXpIKqKDF4PZtAt-117" value="" style="group;labelBackgroundColor=none;fontFamily=GOST type B;fontStyle=2" parent="1" vertex="1" connectable="0">
          <mxGeometry x="2520" y="1760.2" width="737.87" height="239" as="geometry" />
        </mxCell>
        <mxCell id="nFW0XrXpIKqKDF4PZtAt-118" value="" style="endArrow=none;html=1;rounded=0;labelBackgroundColor=none;fontColor=default;fontFamily=GOST type B;fontStyle=2" parent="nFW0XrXpIKqKDF4PZtAt-117" edge="1">
          <mxGeometry width="50" height="50" relative="1" as="geometry">
            <mxPoint y="220.92436974789916" as="sourcePoint" />
            <mxPoint as="targetPoint" />
          </mxGeometry>
        </mxCell>
        <mxCell id="nFW0XrXpIKqKDF4PZtAt-119" value="" style="endArrow=none;html=1;rounded=0;labelBackgroundColor=none;fontColor=default;fontFamily=GOST type B;fontStyle=2" parent="nFW0XrXpIKqKDF4PZtAt-117" edge="1">
          <mxGeometry width="50" height="50" relative="1" as="geometry">
            <mxPoint as="sourcePoint" />
            <mxPoint x="739.9938690540542" y="-1.004201680672269" as="targetPoint" />
          </mxGeometry>
        </mxCell>
        <mxCell id="nFW0XrXpIKqKDF4PZtAt-120" value="" style="endArrow=none;html=1;rounded=0;labelBackgroundColor=none;fontColor=default;fontFamily=GOST type B;fontStyle=2" parent="nFW0XrXpIKqKDF4PZtAt-117" edge="1">
          <mxGeometry width="50" height="50" relative="1" as="geometry">
            <mxPoint x="538.4456756756757" y="220.93441176470608" as="sourcePoint" />
            <mxPoint x="538.4456756756757" y="60" as="targetPoint" />
          </mxGeometry>
        </mxCell>
        <mxCell id="nFW0XrXpIKqKDF4PZtAt-121" value="" style="endArrow=none;html=1;rounded=0;labelBackgroundColor=none;fontColor=default;fontFamily=GOST type B;fontStyle=2" parent="nFW0XrXpIKqKDF4PZtAt-117" edge="1">
          <mxGeometry width="50" height="50" relative="1" as="geometry">
            <mxPoint x="259.2516216216216" y="220.92436974789916" as="sourcePoint" />
            <mxPoint x="259.2516216216216" as="targetPoint" />
          </mxGeometry>
        </mxCell>
        <mxCell id="nFW0XrXpIKqKDF4PZtAt-122" value="" style="endArrow=none;html=1;rounded=0;labelBackgroundColor=none;fontColor=default;fontFamily=GOST type B;fontStyle=2" parent="nFW0XrXpIKqKDF4PZtAt-117" edge="1">
          <mxGeometry width="50" height="50" relative="1" as="geometry">
            <mxPoint x="219.36675675675676" y="220.92436974789916" as="sourcePoint" />
            <mxPoint x="219.36675675675676" as="targetPoint" />
          </mxGeometry>
        </mxCell>
        <mxCell id="nFW0XrXpIKqKDF4PZtAt-123" value="" style="endArrow=none;html=1;rounded=0;labelBackgroundColor=none;fontColor=default;fontFamily=GOST type B;fontStyle=2" parent="nFW0XrXpIKqKDF4PZtAt-117" edge="1">
          <mxGeometry width="50" height="50" relative="1" as="geometry">
            <mxPoint x="160" y="220" as="sourcePoint" />
            <mxPoint x="159.53945945945947" y="0.010042016806941884" as="targetPoint" />
          </mxGeometry>
        </mxCell>
        <mxCell id="nFW0XrXpIKqKDF4PZtAt-124" value="" style="endArrow=none;html=1;rounded=0;labelBackgroundColor=none;fontColor=default;fontFamily=GOST type B;fontStyle=2" parent="nFW0XrXpIKqKDF4PZtAt-117" edge="1">
          <mxGeometry width="50" height="50" relative="1" as="geometry">
            <mxPoint x="66.6376379729729" y="220.93441176470608" as="sourcePoint" />
            <mxPoint x="66.6376379729729" y="0.010042016806941884" as="targetPoint" />
          </mxGeometry>
        </mxCell>
        <mxCell id="nFW0XrXpIKqKDF4PZtAt-125" value="" style="endArrow=none;html=1;rounded=0;labelBackgroundColor=none;fontColor=default;fontFamily=GOST type B;fontStyle=2" parent="nFW0XrXpIKqKDF4PZtAt-117" edge="1">
          <mxGeometry width="50" height="50" relative="1" as="geometry">
            <mxPoint x="22.933797297297296" y="100.42016806722688" as="sourcePoint" />
            <mxPoint x="22.933797297297296" as="targetPoint" />
          </mxGeometry>
        </mxCell>
        <mxCell id="nFW0XrXpIKqKDF4PZtAt-126" value="" style="endArrow=none;html=1;rounded=0;labelBackgroundColor=none;fontColor=default;fontFamily=GOST type B;fontStyle=2" parent="nFW0XrXpIKqKDF4PZtAt-117" edge="1">
          <mxGeometry width="50" height="50" relative="1" as="geometry">
            <mxPoint x="259.2516216216216" y="20.084033613445378" as="sourcePoint" />
            <mxPoint y="20.084033613445378" as="targetPoint" />
          </mxGeometry>
        </mxCell>
        <mxCell id="nFW0XrXpIKqKDF4PZtAt-127" value="" style="endArrow=none;html=1;rounded=0;labelBackgroundColor=none;fontColor=default;fontFamily=GOST type B;fontStyle=2" parent="nFW0XrXpIKqKDF4PZtAt-117" edge="1">
          <mxGeometry width="50" height="50" relative="1" as="geometry">
            <mxPoint x="259.2516216216216" y="40.168067226890756" as="sourcePoint" />
            <mxPoint y="40.168067226890756" as="targetPoint" />
          </mxGeometry>
        </mxCell>
        <mxCell id="nFW0XrXpIKqKDF4PZtAt-128" value="" style="endArrow=none;html=1;rounded=0;labelBackgroundColor=none;fontColor=default;fontFamily=GOST type B;fontStyle=2" parent="nFW0XrXpIKqKDF4PZtAt-117" edge="1">
          <mxGeometry width="50" height="50" relative="1" as="geometry">
            <mxPoint x="259.2516216216216" y="60.252100840336134" as="sourcePoint" />
            <mxPoint y="60.252100840336134" as="targetPoint" />
          </mxGeometry>
        </mxCell>
        <mxCell id="nFW0XrXpIKqKDF4PZtAt-129" value="" style="endArrow=none;html=1;rounded=0;fontFamily=GOST type B;labelBackgroundColor=none;fontColor=default;fontStyle=2" parent="nFW0XrXpIKqKDF4PZtAt-117" edge="1">
          <mxGeometry width="50" height="50" relative="1" as="geometry">
            <mxPoint x="259.2516216216216" y="80.33613445378151" as="sourcePoint" />
            <mxPoint y="80.33613445378151" as="targetPoint" />
          </mxGeometry>
        </mxCell>
        <mxCell id="nFW0XrXpIKqKDF4PZtAt-130" value="" style="endArrow=none;html=1;rounded=0;fontFamily=GOST type B;labelBackgroundColor=none;fontColor=default;fontStyle=2" parent="nFW0XrXpIKqKDF4PZtAt-117" edge="1">
          <mxGeometry width="50" height="50" relative="1" as="geometry">
            <mxPoint x="259.2516216216216" y="100.42016806722688" as="sourcePoint" />
            <mxPoint y="100.42016806722688" as="targetPoint" />
          </mxGeometry>
        </mxCell>
        <mxCell id="nFW0XrXpIKqKDF4PZtAt-131" value="" style="endArrow=none;html=1;rounded=0;fontFamily=GOST type B;labelBackgroundColor=none;fontColor=default;fontStyle=2" parent="nFW0XrXpIKqKDF4PZtAt-117" edge="1">
          <mxGeometry width="50" height="50" relative="1" as="geometry">
            <mxPoint x="259.2516216216216" y="120.50420168067227" as="sourcePoint" />
            <mxPoint y="120.50420168067227" as="targetPoint" />
          </mxGeometry>
        </mxCell>
        <mxCell id="nFW0XrXpIKqKDF4PZtAt-132" value="" style="endArrow=none;html=1;rounded=0;fontFamily=GOST type B;labelBackgroundColor=none;fontColor=default;fontStyle=2" parent="nFW0XrXpIKqKDF4PZtAt-117" edge="1">
          <mxGeometry width="50" height="50" relative="1" as="geometry">
            <mxPoint x="259.2516216216216" y="140.58823529411765" as="sourcePoint" />
            <mxPoint y="140.58823529411765" as="targetPoint" />
          </mxGeometry>
        </mxCell>
        <mxCell id="nFW0XrXpIKqKDF4PZtAt-133" value="" style="endArrow=none;html=1;rounded=0;fontFamily=GOST type B;labelBackgroundColor=none;fontColor=default;fontStyle=2" parent="nFW0XrXpIKqKDF4PZtAt-117" edge="1">
          <mxGeometry width="50" height="50" relative="1" as="geometry">
            <mxPoint x="259.2516216216216" y="160.67226890756302" as="sourcePoint" />
            <mxPoint y="160.67226890756302" as="targetPoint" />
          </mxGeometry>
        </mxCell>
        <mxCell id="nFW0XrXpIKqKDF4PZtAt-134" value="" style="endArrow=none;html=1;rounded=0;fontFamily=GOST type B;labelBackgroundColor=none;fontColor=default;fontStyle=2" parent="nFW0XrXpIKqKDF4PZtAt-117" edge="1">
          <mxGeometry width="50" height="50" relative="1" as="geometry">
            <mxPoint x="259.2516216216216" y="180.7563025210084" as="sourcePoint" />
            <mxPoint y="180.7563025210084" as="targetPoint" />
          </mxGeometry>
        </mxCell>
        <mxCell id="nFW0XrXpIKqKDF4PZtAt-135" value="" style="endArrow=none;html=1;rounded=0;fontFamily=GOST type B;labelBackgroundColor=none;fontColor=default;fontStyle=2" parent="nFW0XrXpIKqKDF4PZtAt-117" edge="1">
          <mxGeometry width="50" height="50" relative="1" as="geometry">
            <mxPoint x="259.2516216216216" y="200.84033613445376" as="sourcePoint" />
            <mxPoint y="200.84033613445376" as="targetPoint" />
          </mxGeometry>
        </mxCell>
        <mxCell id="nFW0XrXpIKqKDF4PZtAt-136" value="" style="endArrow=none;html=1;rounded=0;exitX=0.93;exitY=0.476;exitDx=0;exitDy=0;exitPerimeter=0;labelBackgroundColor=none;fontColor=default;fontFamily=GOST type B;fontStyle=2" parent="nFW0XrXpIKqKDF4PZtAt-117" edge="1">
          <mxGeometry width="50" height="50" relative="1" as="geometry">
            <mxPoint x="737.1260276156759" y="60.261439915966555" as="sourcePoint" />
            <mxPoint x="259.2516216216216" y="60.252100840336134" as="targetPoint" />
          </mxGeometry>
        </mxCell>
        <mxCell id="nFW0XrXpIKqKDF4PZtAt-137" value="" style="endArrow=none;html=1;rounded=0;exitX=0.93;exitY=0.476;exitDx=0;exitDy=0;exitPerimeter=0;labelBackgroundColor=none;fontColor=default;fontFamily=GOST type B;fontStyle=2" parent="nFW0XrXpIKqKDF4PZtAt-117" edge="1">
          <mxGeometry width="50" height="50" relative="1" as="geometry">
            <mxPoint x="737.1359988318924" y="160.68160798319343" as="sourcePoint" />
            <mxPoint x="259.26159283783807" y="160.67226890756302" as="targetPoint" />
          </mxGeometry>
        </mxCell>
        <mxCell id="nFW0XrXpIKqKDF4PZtAt-138" value="" style="endArrow=none;html=1;rounded=0;labelBackgroundColor=none;fontColor=default;fontFamily=GOST type B;fontStyle=2" parent="nFW0XrXpIKqKDF4PZtAt-117" edge="1">
          <mxGeometry width="50" height="50" relative="1" as="geometry">
            <mxPoint x="737.87" y="80.33613445378151" as="sourcePoint" />
            <mxPoint x="538.4456756756757" y="80.33613445378151" as="targetPoint" />
          </mxGeometry>
        </mxCell>
        <mxCell id="nFW0XrXpIKqKDF4PZtAt-139" value="" style="endArrow=none;html=1;rounded=0;labelBackgroundColor=none;fontColor=default;fontFamily=GOST type B;fontStyle=2" parent="nFW0XrXpIKqKDF4PZtAt-117" edge="1">
          <mxGeometry width="50" height="50" relative="1" as="geometry">
            <mxPoint x="737.1321300000002" y="140.58823529411765" as="sourcePoint" />
            <mxPoint x="538.4456756756757" y="140.58823529411765" as="targetPoint" />
          </mxGeometry>
        </mxCell>
        <mxCell id="nFW0XrXpIKqKDF4PZtAt-140" value="" style="endArrow=none;html=1;rounded=0;labelBackgroundColor=none;fontColor=default;fontFamily=GOST type B;fontStyle=2" parent="nFW0XrXpIKqKDF4PZtAt-117" edge="1">
          <mxGeometry width="50" height="50" relative="1" as="geometry">
            <mxPoint x="558.3881081081081" y="140.58823529411765" as="sourcePoint" />
            <mxPoint x="558.3881081081081" y="80.33613445378151" as="targetPoint" />
          </mxGeometry>
        </mxCell>
        <mxCell id="nFW0XrXpIKqKDF4PZtAt-141" value="" style="endArrow=none;html=1;rounded=0;labelBackgroundColor=none;fontColor=default;fontFamily=GOST type B;fontStyle=2" parent="nFW0XrXpIKqKDF4PZtAt-117" edge="1">
          <mxGeometry width="50" height="50" relative="1" as="geometry">
            <mxPoint x="578.3305405405406" y="140.58823529411765" as="sourcePoint" />
            <mxPoint x="578.3305405405406" y="80.33613445378151" as="targetPoint" />
          </mxGeometry>
        </mxCell>
        <mxCell id="nFW0XrXpIKqKDF4PZtAt-142" value="" style="endArrow=none;html=1;rounded=0;labelBackgroundColor=none;fontColor=default;fontFamily=GOST type B;fontStyle=2" parent="nFW0XrXpIKqKDF4PZtAt-117" edge="1">
          <mxGeometry width="50" height="50" relative="1" as="geometry">
            <mxPoint x="598.272972972973" y="140.58823529411765" as="sourcePoint" />
            <mxPoint x="598.272972972973" y="60.252100840336134" as="targetPoint" />
          </mxGeometry>
        </mxCell>
        <mxCell id="nFW0XrXpIKqKDF4PZtAt-143" value="" style="endArrow=none;html=1;rounded=0;labelBackgroundColor=none;fontColor=default;fontFamily=GOST type B;fontStyle=2" parent="nFW0XrXpIKqKDF4PZtAt-117" edge="1">
          <mxGeometry width="50" height="50" relative="1" as="geometry">
            <mxPoint x="662.0887567567568" y="140.58823529411765" as="sourcePoint" />
            <mxPoint x="662.0887567567568" y="60.252100840336134" as="targetPoint" />
          </mxGeometry>
        </mxCell>
        <mxCell id="nFW0XrXpIKqKDF4PZtAt-144" value="" style="endArrow=none;html=1;rounded=0;labelBackgroundColor=none;fontColor=default;fontFamily=GOST type B;fontStyle=2" parent="nFW0XrXpIKqKDF4PZtAt-117" edge="1">
          <mxGeometry width="50" height="50" relative="1" as="geometry">
            <mxPoint x="618.2154054054055" y="160.67226890756302" as="sourcePoint" />
            <mxPoint x="618.2154054054055" y="140.58823529411765" as="targetPoint" />
          </mxGeometry>
        </mxCell>
        <mxCell id="nFW0XrXpIKqKDF4PZtAt-145" value="&lt;font style=&quot;font-size: 10px;&quot;&gt;&lt;span&gt;Изм.&lt;/span&gt;&lt;/font&gt;" style="text;html=1;align=center;verticalAlign=middle;resizable=0;points=[];autosize=1;strokeColor=none;fillColor=none;fontFamily=GOST type B;labelBackgroundColor=none;fontStyle=2" parent="nFW0XrXpIKqKDF4PZtAt-117" vertex="1">
          <mxGeometry x="-7.976972972972973" y="77.32352941176471" width="40" height="30" as="geometry" />
        </mxCell>
        <mxCell id="nFW0XrXpIKqKDF4PZtAt-146" value="&lt;font size=&quot;1&quot;&gt;&lt;span style=&quot;font-size: 12px;&quot;&gt;Л.&lt;/span&gt;&lt;/font&gt;" style="text;html=1;align=center;verticalAlign=middle;resizable=0;points=[];autosize=1;strokeColor=none;fillColor=none;fontFamily=GOST type B;labelBackgroundColor=none;fontStyle=2" parent="nFW0XrXpIKqKDF4PZtAt-117" vertex="1">
          <mxGeometry x="41.8935" y="77.32352941176471" width="30" height="30" as="geometry" />
        </mxCell>
        <mxCell id="nFW0XrXpIKqKDF4PZtAt-147" value="&lt;font&gt;&lt;span&gt;Т.Контр.&lt;/span&gt;&lt;/font&gt;" style="text;html=1;align=center;verticalAlign=middle;resizable=0;points=[];autosize=1;strokeColor=none;fillColor=none;fontFamily=GOST type B;labelBackgroundColor=none;fontStyle=2" parent="nFW0XrXpIKqKDF4PZtAt-117" vertex="1">
          <mxGeometry x="-4.985608108108108" y="138.57983193277312" width="70" height="30" as="geometry" />
        </mxCell>
        <mxCell id="nFW0XrXpIKqKDF4PZtAt-148" value="&lt;font&gt;&lt;span&gt;Рец&lt;/span&gt;&lt;/font&gt;." style="text;html=1;align=center;verticalAlign=middle;resizable=0;points=[];autosize=1;strokeColor=none;fillColor=none;fontFamily=GOST type B;labelBackgroundColor=none;fontStyle=2" parent="nFW0XrXpIKqKDF4PZtAt-117" vertex="1">
          <mxGeometry x="0.023027027027026747" y="158.6638655462185" width="40" height="30" as="geometry" />
        </mxCell>
        <mxCell id="nFW0XrXpIKqKDF4PZtAt-149" value="&lt;span&gt;&lt;font&gt;Н. контр.&lt;/font&gt;&lt;/span&gt;" style="text;html=1;align=center;verticalAlign=middle;resizable=0;points=[];autosize=1;strokeColor=none;fillColor=none;fontFamily=GOST type B;labelBackgroundColor=none;fontStyle=2" parent="nFW0XrXpIKqKDF4PZtAt-117" vertex="1">
          <mxGeometry x="-2.9769729729729733" y="178.74789915966386" width="70" height="30" as="geometry" />
        </mxCell>
        <mxCell id="nFW0XrXpIKqKDF4PZtAt-150" value="&lt;span&gt;&lt;font&gt;№ докум.&lt;/font&gt;&lt;/span&gt;" style="text;html=1;align=center;verticalAlign=middle;resizable=0;points=[];autosize=1;strokeColor=none;fillColor=none;fontFamily=GOST type B;labelBackgroundColor=none;fontStyle=2" parent="nFW0XrXpIKqKDF4PZtAt-117" vertex="1">
          <mxGeometry x="76.79275675675676" y="77.32352941176471" width="70" height="30" as="geometry" />
        </mxCell>
        <mxCell id="nFW0XrXpIKqKDF4PZtAt-151" value="Еленевич" style="text;html=1;align=center;verticalAlign=middle;resizable=0;points=[];autosize=1;strokeColor=none;fillColor=none;fontFamily=GOST type B;labelBackgroundColor=none;fontStyle=2" parent="nFW0XrXpIKqKDF4PZtAt-117" vertex="1">
          <mxGeometry x="60.82729729729729" y="97.41596638655462" width="70" height="30" as="geometry" />
        </mxCell>
        <mxCell id="nFW0XrXpIKqKDF4PZtAt-152" value="&lt;span&gt;&lt;font&gt;Писарчик&lt;/font&gt;&lt;/span&gt;" style="text;html=1;align=center;verticalAlign=middle;resizable=0;points=[];autosize=1;strokeColor=none;fillColor=none;fontFamily=GOST type B;labelBackgroundColor=none;fontStyle=2" parent="nFW0XrXpIKqKDF4PZtAt-117" vertex="1">
          <mxGeometry x="60.83593243243243" y="117.49159663865547" width="70" height="30" as="geometry" />
        </mxCell>
        <mxCell id="nFW0XrXpIKqKDF4PZtAt-153" value="&lt;font&gt;&lt;span&gt;Бруй&lt;/span&gt;&lt;/font&gt;" style="text;html=1;align=center;verticalAlign=middle;resizable=0;points=[];autosize=1;strokeColor=none;fillColor=none;fontFamily=GOST type B;labelBackgroundColor=none;fontStyle=2" parent="nFW0XrXpIKqKDF4PZtAt-117" vertex="1">
          <mxGeometry x="61.82154054054054" y="178.74789915966386" width="50" height="30" as="geometry" />
        </mxCell>
        <mxCell id="nFW0XrXpIKqKDF4PZtAt-154" value="&lt;font&gt;&lt;span&gt;Дата&lt;/span&gt;&lt;/font&gt;" style="text;html=1;align=center;verticalAlign=middle;resizable=0;points=[];autosize=1;strokeColor=none;fillColor=none;fontFamily=GOST type B;labelBackgroundColor=none;fontStyle=2" parent="nFW0XrXpIKqKDF4PZtAt-117" vertex="1">
          <mxGeometry x="214.39554054054054" y="77.32352941176471" width="50" height="30" as="geometry" />
        </mxCell>
        <mxCell id="nFW0XrXpIKqKDF4PZtAt-155" value="&lt;span style=&quot;&quot;&gt;1:1&lt;/span&gt;" style="text;html=1;align=center;verticalAlign=middle;resizable=0;points=[];autosize=1;strokeColor=none;fillColor=none;labelBackgroundColor=none;fontFamily=GOST type B;fontStyle=2" parent="nFW0XrXpIKqKDF4PZtAt-117" vertex="1">
          <mxGeometry x="683.0427027027027" y="94.39495798319328" width="30" height="30" as="geometry" />
        </mxCell>
        <mxCell id="nFW0XrXpIKqKDF4PZtAt-156" value="&lt;span&gt;Каферда ПИКС,&lt;br&gt;&amp;nbsp;гр. 083871&lt;/span&gt;" style="text;html=1;align=center;verticalAlign=middle;resizable=0;points=[];autosize=1;strokeColor=none;fillColor=none;labelBackgroundColor=none;fontFamily=GOST type B;fontStyle=2" parent="nFW0XrXpIKqKDF4PZtAt-117" vertex="1">
          <mxGeometry x="588.3161486486487" y="169.74789915966386" width="100" height="40" as="geometry" />
        </mxCell>
        <mxCell id="nFW0XrXpIKqKDF4PZtAt-157" value="&lt;i style=&quot;border-color: var(--border-color);&quot;&gt;&lt;font style=&quot;border-color: var(--border-color); font-size: 20px;&quot;&gt;ГУИР.08387-09 05 01&lt;/font&gt;&lt;/i&gt;" style="text;html=1;align=center;verticalAlign=middle;resizable=0;points=[];autosize=1;strokeColor=none;fillColor=none;labelBackgroundColor=none;fontFamily=GOST type B;fontStyle=2" parent="nFW0XrXpIKqKDF4PZtAt-117" vertex="1">
          <mxGeometry x="400.0933108108108" y="10.07563025210084" width="200" height="40" as="geometry" />
        </mxCell>
        <mxCell id="nFW0XrXpIKqKDF4PZtAt-158" value="&lt;span style=&quot;font-size: 20px;&quot;&gt;Пользовательский интерфейс&lt;br&gt;программного средства&lt;br&gt;&lt;/span&gt;" style="text;html=1;align=center;verticalAlign=middle;resizable=0;points=[];autosize=1;strokeColor=none;fillColor=none;labelBackgroundColor=none;fontFamily=GOST type B;fontStyle=2" parent="nFW0XrXpIKqKDF4PZtAt-117" vertex="1">
          <mxGeometry x="254.1364864864865" y="84.39193277310925" width="280" height="60" as="geometry" />
        </mxCell>
        <mxCell id="nFW0XrXpIKqKDF4PZtAt-159" value="&lt;span&gt;Формат А1&lt;/span&gt;" style="text;html=1;align=center;verticalAlign=middle;resizable=0;points=[];autosize=1;strokeColor=none;fillColor=none;spacing=0;labelBackgroundColor=none;fontFamily=GOST type B;fontStyle=2" parent="nFW0XrXpIKqKDF4PZtAt-117" vertex="1">
          <mxGeometry x="598.2873648648649" y="218.91596638655463" width="80" height="20" as="geometry" />
        </mxCell>
        <mxCell id="nFW0XrXpIKqKDF4PZtAt-160" value="Писарчик" style="text;html=1;align=center;verticalAlign=middle;resizable=0;points=[];autosize=1;strokeColor=none;fillColor=none;fontFamily=GOST type B;labelBackgroundColor=none;fontStyle=2" parent="nFW0XrXpIKqKDF4PZtAt-117" vertex="1">
          <mxGeometry x="60.83593243243243" y="138.57983193277312" width="70" height="30" as="geometry" />
        </mxCell>
        <mxCell id="nFW0XrXpIKqKDF4PZtAt-161" value="&lt;span&gt;&lt;font&gt;Пискун&lt;/font&gt;&lt;/span&gt;" style="text;html=1;align=center;verticalAlign=middle;resizable=0;points=[];autosize=1;strokeColor=none;fillColor=none;fontFamily=GOST type B;labelBackgroundColor=none;fontStyle=2" parent="nFW0XrXpIKqKDF4PZtAt-117" vertex="1">
          <mxGeometry x="61.82154054054054" y="198.83193277310923" width="60" height="30" as="geometry" />
        </mxCell>
        <mxCell id="nFW0XrXpIKqKDF4PZtAt-162" value="Ковалёва" style="text;html=1;align=center;verticalAlign=middle;resizable=0;points=[];autosize=1;strokeColor=none;fillColor=none;fontFamily=GOST type B;labelBackgroundColor=none;fontStyle=2" parent="nFW0XrXpIKqKDF4PZtAt-117" vertex="1">
          <mxGeometry x="61.82593243243218" y="158.65983193277316" width="70" height="30" as="geometry" />
        </mxCell>
        <mxCell id="nFW0XrXpIKqKDF4PZtAt-163" value="&lt;font&gt;&lt;span&gt;Утв&lt;/span&gt;&lt;/font&gt;." style="text;html=1;align=center;verticalAlign=middle;resizable=0;points=[];autosize=1;strokeColor=none;fillColor=none;labelBackgroundColor=none;fontFamily=GOST type B;fontStyle=2" parent="nFW0XrXpIKqKDF4PZtAt-117" vertex="1">
          <mxGeometry x="-5.976972972972817" y="197.8319327731092" width="50" height="30" as="geometry" />
        </mxCell>
        <mxCell id="nFW0XrXpIKqKDF4PZtAt-164" value="&lt;font style=&quot;font-size: 12px;&quot;&gt;&lt;font style=&quot;font-size: 12px;&quot;&gt;&lt;span&gt;Разраб&lt;/span&gt;&lt;/font&gt;.&lt;/font&gt;" style="text;html=1;align=center;verticalAlign=middle;resizable=0;points=[];autosize=1;strokeColor=none;fillColor=none;fontFamily=GOST type B;labelBackgroundColor=none;fontStyle=2" parent="1" vertex="1">
          <mxGeometry x="2517" y="1859.2" width="60" height="30" as="geometry" />
        </mxCell>
        <mxCell id="nFW0XrXpIKqKDF4PZtAt-165" value="&lt;span&gt;&lt;font&gt;Пров.&lt;/font&gt;&lt;/span&gt;" style="text;html=1;align=center;verticalAlign=middle;resizable=0;points=[];autosize=1;strokeColor=none;fillColor=none;fontFamily=GOST type B;labelBackgroundColor=none;fontStyle=2" parent="1" vertex="1">
          <mxGeometry x="2517" y="1879.2" width="50" height="30" as="geometry" />
        </mxCell>
        <mxCell id="nFW0XrXpIKqKDF4PZtAt-166" value="&lt;span&gt;&lt;font&gt;Подп&lt;/font&gt;&lt;/span&gt;." style="text;html=1;align=center;verticalAlign=middle;resizable=0;points=[];autosize=1;strokeColor=none;fillColor=none;fontFamily=GOST type B;labelBackgroundColor=none;fontStyle=2" parent="1" vertex="1">
          <mxGeometry x="2685" y="1838.2" width="50" height="30" as="geometry" />
        </mxCell>
        <mxCell id="nFW0XrXpIKqKDF4PZtAt-167" value="&lt;span&gt;Лит.&lt;/span&gt;" style="text;html=1;align=center;verticalAlign=middle;resizable=0;points=[];autosize=1;strokeColor=none;fillColor=none;labelBackgroundColor=none;fontFamily=GOST type B;fontStyle=2" parent="1" vertex="1">
          <mxGeometry x="3065" y="1819.2" width="50" height="30" as="geometry" />
        </mxCell>
        <mxCell id="nFW0XrXpIKqKDF4PZtAt-168" value="&lt;span&gt;&lt;font&gt;Масса&lt;/font&gt;&lt;/span&gt;" style="text;html=1;align=center;verticalAlign=middle;resizable=0;points=[];autosize=1;strokeColor=none;fillColor=none;labelBackgroundColor=none;fontFamily=GOST type B;fontStyle=2" parent="1" vertex="1">
          <mxGeometry x="3125" y="1819.2" width="50" height="30" as="geometry" />
        </mxCell>
        <mxCell id="nFW0XrXpIKqKDF4PZtAt-169" value="&lt;span&gt;Масштаб&lt;/span&gt;" style="text;html=1;align=center;verticalAlign=middle;resizable=0;points=[];autosize=1;strokeColor=none;fillColor=none;labelBackgroundColor=none;fontFamily=GOST type B;fontStyle=2" parent="1" vertex="1">
          <mxGeometry x="3185" y="1819.2" width="70" height="30" as="geometry" />
        </mxCell>
        <mxCell id="nFW0XrXpIKqKDF4PZtAt-170" value="&lt;span&gt;Т&lt;/span&gt;" style="text;html=1;align=center;verticalAlign=middle;resizable=0;points=[];autosize=1;strokeColor=none;fillColor=none;labelBackgroundColor=none;fontFamily=GOST type B;fontStyle=2" parent="1" vertex="1">
          <mxGeometry x="3074" y="1855.2" width="30" height="30" as="geometry" />
        </mxCell>
        <mxCell id="nFW0XrXpIKqKDF4PZtAt-171" value="&lt;span&gt;Лист&lt;/span&gt;" style="text;html=1;align=center;verticalAlign=middle;resizable=0;points=[];autosize=1;strokeColor=none;fillColor=none;labelBackgroundColor=none;fontFamily=GOST type B;fontStyle=2" parent="1" vertex="1">
          <mxGeometry x="3065" y="1899.2" width="50" height="30" as="geometry" />
        </mxCell>
        <mxCell id="nFW0XrXpIKqKDF4PZtAt-172" value="&lt;span&gt;Листов&lt;/span&gt;" style="text;html=1;align=center;verticalAlign=middle;resizable=0;points=[];autosize=1;strokeColor=none;fillColor=none;labelBackgroundColor=none;fontFamily=GOST type B;fontStyle=2" parent="1" vertex="1">
          <mxGeometry x="3167" y="1897.2" width="60" height="30" as="geometry" />
        </mxCell>
        <mxCell id="nFW0XrXpIKqKDF4PZtAt-173" value="" style="endArrow=none;html=1;rounded=0;" parent="1" edge="1">
          <mxGeometry width="50" height="50" relative="1" as="geometry">
            <mxPoint x="2520" y="1981.2" as="sourcePoint" />
            <mxPoint x="3260" y="1981.2" as="targetPoint" />
          </mxGeometry>
        </mxCell>
        <mxCell id="nFW0XrXpIKqKDF4PZtAt-174" value="" style="endArrow=none;html=1;rounded=0;" parent="1" edge="1">
          <mxGeometry width="50" height="50" relative="1" as="geometry">
            <mxPoint x="3260" y="1760" as="sourcePoint" />
            <mxPoint x="3260" y="1980.2" as="targetPoint" />
          </mxGeometry>
        </mxCell>
        <mxCell id="nFW0XrXpIKqKDF4PZtAt-175" value="" style="group;labelBackgroundColor=none;fontFamily=GOST type B;fontStyle=2" parent="1" vertex="1" connectable="0">
          <mxGeometry x="2520" y="2079.2" width="737.87" height="239" as="geometry" />
        </mxCell>
        <mxCell id="nFW0XrXpIKqKDF4PZtAt-176" value="" style="endArrow=none;html=1;rounded=0;labelBackgroundColor=none;fontColor=default;fontFamily=GOST type B;fontStyle=2" parent="nFW0XrXpIKqKDF4PZtAt-175" edge="1">
          <mxGeometry width="50" height="50" relative="1" as="geometry">
            <mxPoint y="220.92436974789916" as="sourcePoint" />
            <mxPoint as="targetPoint" />
          </mxGeometry>
        </mxCell>
        <mxCell id="nFW0XrXpIKqKDF4PZtAt-177" value="" style="endArrow=none;html=1;rounded=0;labelBackgroundColor=none;fontColor=default;fontFamily=GOST type B;fontStyle=2" parent="nFW0XrXpIKqKDF4PZtAt-175" edge="1">
          <mxGeometry width="50" height="50" relative="1" as="geometry">
            <mxPoint as="sourcePoint" />
            <mxPoint x="739.9938690540542" y="-1.004201680672269" as="targetPoint" />
          </mxGeometry>
        </mxCell>
        <mxCell id="nFW0XrXpIKqKDF4PZtAt-178" value="" style="endArrow=none;html=1;rounded=0;labelBackgroundColor=none;fontColor=default;fontFamily=GOST type B;fontStyle=2" parent="nFW0XrXpIKqKDF4PZtAt-175" edge="1">
          <mxGeometry width="50" height="50" relative="1" as="geometry">
            <mxPoint x="538.4456756756757" y="220.93441176470608" as="sourcePoint" />
            <mxPoint x="538.4456756756757" y="60" as="targetPoint" />
          </mxGeometry>
        </mxCell>
        <mxCell id="nFW0XrXpIKqKDF4PZtAt-179" value="" style="endArrow=none;html=1;rounded=0;labelBackgroundColor=none;fontColor=default;fontFamily=GOST type B;fontStyle=2" parent="nFW0XrXpIKqKDF4PZtAt-175" edge="1">
          <mxGeometry width="50" height="50" relative="1" as="geometry">
            <mxPoint x="259.2516216216216" y="220.92436974789916" as="sourcePoint" />
            <mxPoint x="259.2516216216216" as="targetPoint" />
          </mxGeometry>
        </mxCell>
        <mxCell id="nFW0XrXpIKqKDF4PZtAt-180" value="" style="endArrow=none;html=1;rounded=0;labelBackgroundColor=none;fontColor=default;fontFamily=GOST type B;fontStyle=2" parent="nFW0XrXpIKqKDF4PZtAt-175" edge="1">
          <mxGeometry width="50" height="50" relative="1" as="geometry">
            <mxPoint x="219.36675675675676" y="220.92436974789916" as="sourcePoint" />
            <mxPoint x="219.36675675675676" as="targetPoint" />
          </mxGeometry>
        </mxCell>
        <mxCell id="nFW0XrXpIKqKDF4PZtAt-181" value="" style="endArrow=none;html=1;rounded=0;labelBackgroundColor=none;fontColor=default;fontFamily=GOST type B;fontStyle=2" parent="nFW0XrXpIKqKDF4PZtAt-175" edge="1">
          <mxGeometry width="50" height="50" relative="1" as="geometry">
            <mxPoint x="160" y="220" as="sourcePoint" />
            <mxPoint x="159.53945945945947" y="0.010042016806941884" as="targetPoint" />
          </mxGeometry>
        </mxCell>
        <mxCell id="nFW0XrXpIKqKDF4PZtAt-182" value="" style="endArrow=none;html=1;rounded=0;labelBackgroundColor=none;fontColor=default;fontFamily=GOST type B;fontStyle=2" parent="nFW0XrXpIKqKDF4PZtAt-175" edge="1">
          <mxGeometry width="50" height="50" relative="1" as="geometry">
            <mxPoint x="66.6376379729729" y="220.93441176470608" as="sourcePoint" />
            <mxPoint x="66.6376379729729" y="0.010042016806941884" as="targetPoint" />
          </mxGeometry>
        </mxCell>
        <mxCell id="nFW0XrXpIKqKDF4PZtAt-183" value="" style="endArrow=none;html=1;rounded=0;labelBackgroundColor=none;fontColor=default;fontFamily=GOST type B;fontStyle=2" parent="nFW0XrXpIKqKDF4PZtAt-175" edge="1">
          <mxGeometry width="50" height="50" relative="1" as="geometry">
            <mxPoint x="22.933797297297296" y="100.42016806722688" as="sourcePoint" />
            <mxPoint x="22.933797297297296" as="targetPoint" />
          </mxGeometry>
        </mxCell>
        <mxCell id="nFW0XrXpIKqKDF4PZtAt-184" value="" style="endArrow=none;html=1;rounded=0;labelBackgroundColor=none;fontColor=default;fontFamily=GOST type B;fontStyle=2" parent="nFW0XrXpIKqKDF4PZtAt-175" edge="1">
          <mxGeometry width="50" height="50" relative="1" as="geometry">
            <mxPoint x="259.2516216216216" y="20.084033613445378" as="sourcePoint" />
            <mxPoint y="20.084033613445378" as="targetPoint" />
          </mxGeometry>
        </mxCell>
        <mxCell id="nFW0XrXpIKqKDF4PZtAt-185" value="" style="endArrow=none;html=1;rounded=0;labelBackgroundColor=none;fontColor=default;fontFamily=GOST type B;fontStyle=2" parent="nFW0XrXpIKqKDF4PZtAt-175" edge="1">
          <mxGeometry width="50" height="50" relative="1" as="geometry">
            <mxPoint x="259.2516216216216" y="40.168067226890756" as="sourcePoint" />
            <mxPoint y="40.168067226890756" as="targetPoint" />
          </mxGeometry>
        </mxCell>
        <mxCell id="nFW0XrXpIKqKDF4PZtAt-186" value="" style="endArrow=none;html=1;rounded=0;labelBackgroundColor=none;fontColor=default;fontFamily=GOST type B;fontStyle=2" parent="nFW0XrXpIKqKDF4PZtAt-175" edge="1">
          <mxGeometry width="50" height="50" relative="1" as="geometry">
            <mxPoint x="259.2516216216216" y="60.252100840336134" as="sourcePoint" />
            <mxPoint y="60.252100840336134" as="targetPoint" />
          </mxGeometry>
        </mxCell>
        <mxCell id="nFW0XrXpIKqKDF4PZtAt-187" value="" style="endArrow=none;html=1;rounded=0;fontFamily=GOST type B;labelBackgroundColor=none;fontColor=default;fontStyle=2" parent="nFW0XrXpIKqKDF4PZtAt-175" edge="1">
          <mxGeometry width="50" height="50" relative="1" as="geometry">
            <mxPoint x="259.2516216216216" y="80.33613445378151" as="sourcePoint" />
            <mxPoint y="80.33613445378151" as="targetPoint" />
          </mxGeometry>
        </mxCell>
        <mxCell id="nFW0XrXpIKqKDF4PZtAt-188" value="" style="endArrow=none;html=1;rounded=0;fontFamily=GOST type B;labelBackgroundColor=none;fontColor=default;fontStyle=2" parent="nFW0XrXpIKqKDF4PZtAt-175" edge="1">
          <mxGeometry width="50" height="50" relative="1" as="geometry">
            <mxPoint x="259.2516216216216" y="100.42016806722688" as="sourcePoint" />
            <mxPoint y="100.42016806722688" as="targetPoint" />
          </mxGeometry>
        </mxCell>
        <mxCell id="nFW0XrXpIKqKDF4PZtAt-189" value="" style="endArrow=none;html=1;rounded=0;fontFamily=GOST type B;labelBackgroundColor=none;fontColor=default;fontStyle=2" parent="nFW0XrXpIKqKDF4PZtAt-175" edge="1">
          <mxGeometry width="50" height="50" relative="1" as="geometry">
            <mxPoint x="259.2516216216216" y="120.50420168067227" as="sourcePoint" />
            <mxPoint y="120.50420168067227" as="targetPoint" />
          </mxGeometry>
        </mxCell>
        <mxCell id="nFW0XrXpIKqKDF4PZtAt-190" value="" style="endArrow=none;html=1;rounded=0;fontFamily=GOST type B;labelBackgroundColor=none;fontColor=default;fontStyle=2" parent="nFW0XrXpIKqKDF4PZtAt-175" edge="1">
          <mxGeometry width="50" height="50" relative="1" as="geometry">
            <mxPoint x="259.2516216216216" y="140.58823529411765" as="sourcePoint" />
            <mxPoint y="140.58823529411765" as="targetPoint" />
          </mxGeometry>
        </mxCell>
        <mxCell id="nFW0XrXpIKqKDF4PZtAt-191" value="" style="endArrow=none;html=1;rounded=0;fontFamily=GOST type B;labelBackgroundColor=none;fontColor=default;fontStyle=2" parent="nFW0XrXpIKqKDF4PZtAt-175" edge="1">
          <mxGeometry width="50" height="50" relative="1" as="geometry">
            <mxPoint x="259.2516216216216" y="160.67226890756302" as="sourcePoint" />
            <mxPoint y="160.67226890756302" as="targetPoint" />
          </mxGeometry>
        </mxCell>
        <mxCell id="nFW0XrXpIKqKDF4PZtAt-192" value="" style="endArrow=none;html=1;rounded=0;fontFamily=GOST type B;labelBackgroundColor=none;fontColor=default;fontStyle=2" parent="nFW0XrXpIKqKDF4PZtAt-175" edge="1">
          <mxGeometry width="50" height="50" relative="1" as="geometry">
            <mxPoint x="259.2516216216216" y="180.7563025210084" as="sourcePoint" />
            <mxPoint y="180.7563025210084" as="targetPoint" />
          </mxGeometry>
        </mxCell>
        <mxCell id="nFW0XrXpIKqKDF4PZtAt-193" value="" style="endArrow=none;html=1;rounded=0;fontFamily=GOST type B;labelBackgroundColor=none;fontColor=default;fontStyle=2" parent="nFW0XrXpIKqKDF4PZtAt-175" edge="1">
          <mxGeometry width="50" height="50" relative="1" as="geometry">
            <mxPoint x="259.2516216216216" y="200.84033613445376" as="sourcePoint" />
            <mxPoint y="200.84033613445376" as="targetPoint" />
          </mxGeometry>
        </mxCell>
        <mxCell id="nFW0XrXpIKqKDF4PZtAt-194" value="" style="endArrow=none;html=1;rounded=0;exitX=0.93;exitY=0.476;exitDx=0;exitDy=0;exitPerimeter=0;labelBackgroundColor=none;fontColor=default;fontFamily=GOST type B;fontStyle=2" parent="nFW0XrXpIKqKDF4PZtAt-175" edge="1">
          <mxGeometry width="50" height="50" relative="1" as="geometry">
            <mxPoint x="737.1260276156759" y="60.261439915966555" as="sourcePoint" />
            <mxPoint x="259.2516216216216" y="60.252100840336134" as="targetPoint" />
          </mxGeometry>
        </mxCell>
        <mxCell id="nFW0XrXpIKqKDF4PZtAt-195" value="" style="endArrow=none;html=1;rounded=0;exitX=0.93;exitY=0.476;exitDx=0;exitDy=0;exitPerimeter=0;labelBackgroundColor=none;fontColor=default;fontFamily=GOST type B;fontStyle=2" parent="nFW0XrXpIKqKDF4PZtAt-175" edge="1">
          <mxGeometry width="50" height="50" relative="1" as="geometry">
            <mxPoint x="737.1359988318924" y="160.68160798319343" as="sourcePoint" />
            <mxPoint x="259.26159283783807" y="160.67226890756302" as="targetPoint" />
          </mxGeometry>
        </mxCell>
        <mxCell id="nFW0XrXpIKqKDF4PZtAt-196" value="" style="endArrow=none;html=1;rounded=0;labelBackgroundColor=none;fontColor=default;fontFamily=GOST type B;fontStyle=2" parent="nFW0XrXpIKqKDF4PZtAt-175" edge="1">
          <mxGeometry width="50" height="50" relative="1" as="geometry">
            <mxPoint x="737.87" y="80.33613445378151" as="sourcePoint" />
            <mxPoint x="538.4456756756757" y="80.33613445378151" as="targetPoint" />
          </mxGeometry>
        </mxCell>
        <mxCell id="nFW0XrXpIKqKDF4PZtAt-197" value="" style="endArrow=none;html=1;rounded=0;labelBackgroundColor=none;fontColor=default;fontFamily=GOST type B;fontStyle=2" parent="nFW0XrXpIKqKDF4PZtAt-175" edge="1">
          <mxGeometry width="50" height="50" relative="1" as="geometry">
            <mxPoint x="737.1321300000002" y="140.58823529411765" as="sourcePoint" />
            <mxPoint x="538.4456756756757" y="140.58823529411765" as="targetPoint" />
          </mxGeometry>
        </mxCell>
        <mxCell id="nFW0XrXpIKqKDF4PZtAt-198" value="" style="endArrow=none;html=1;rounded=0;labelBackgroundColor=none;fontColor=default;fontFamily=GOST type B;fontStyle=2" parent="nFW0XrXpIKqKDF4PZtAt-175" edge="1">
          <mxGeometry width="50" height="50" relative="1" as="geometry">
            <mxPoint x="558.3881081081081" y="140.58823529411765" as="sourcePoint" />
            <mxPoint x="558.3881081081081" y="80.33613445378151" as="targetPoint" />
          </mxGeometry>
        </mxCell>
        <mxCell id="nFW0XrXpIKqKDF4PZtAt-199" value="" style="endArrow=none;html=1;rounded=0;labelBackgroundColor=none;fontColor=default;fontFamily=GOST type B;fontStyle=2" parent="nFW0XrXpIKqKDF4PZtAt-175" edge="1">
          <mxGeometry width="50" height="50" relative="1" as="geometry">
            <mxPoint x="578.3305405405406" y="140.58823529411765" as="sourcePoint" />
            <mxPoint x="578.3305405405406" y="80.33613445378151" as="targetPoint" />
          </mxGeometry>
        </mxCell>
        <mxCell id="nFW0XrXpIKqKDF4PZtAt-200" value="" style="endArrow=none;html=1;rounded=0;labelBackgroundColor=none;fontColor=default;fontFamily=GOST type B;fontStyle=2" parent="nFW0XrXpIKqKDF4PZtAt-175" edge="1">
          <mxGeometry width="50" height="50" relative="1" as="geometry">
            <mxPoint x="598.272972972973" y="140.58823529411765" as="sourcePoint" />
            <mxPoint x="598.272972972973" y="60.252100840336134" as="targetPoint" />
          </mxGeometry>
        </mxCell>
        <mxCell id="nFW0XrXpIKqKDF4PZtAt-201" value="" style="endArrow=none;html=1;rounded=0;labelBackgroundColor=none;fontColor=default;fontFamily=GOST type B;fontStyle=2" parent="nFW0XrXpIKqKDF4PZtAt-175" edge="1">
          <mxGeometry width="50" height="50" relative="1" as="geometry">
            <mxPoint x="662.0887567567568" y="140.58823529411765" as="sourcePoint" />
            <mxPoint x="662.0887567567568" y="60.252100840336134" as="targetPoint" />
          </mxGeometry>
        </mxCell>
        <mxCell id="nFW0XrXpIKqKDF4PZtAt-202" value="" style="endArrow=none;html=1;rounded=0;labelBackgroundColor=none;fontColor=default;fontFamily=GOST type B;fontStyle=2" parent="nFW0XrXpIKqKDF4PZtAt-175" edge="1">
          <mxGeometry width="50" height="50" relative="1" as="geometry">
            <mxPoint x="618.2154054054055" y="160.67226890756302" as="sourcePoint" />
            <mxPoint x="618.2154054054055" y="140.58823529411765" as="targetPoint" />
          </mxGeometry>
        </mxCell>
        <mxCell id="nFW0XrXpIKqKDF4PZtAt-203" value="&lt;font style=&quot;font-size: 10px;&quot;&gt;&lt;span&gt;Изм.&lt;/span&gt;&lt;/font&gt;" style="text;html=1;align=center;verticalAlign=middle;resizable=0;points=[];autosize=1;strokeColor=none;fillColor=none;fontFamily=GOST type B;labelBackgroundColor=none;fontStyle=2" parent="nFW0XrXpIKqKDF4PZtAt-175" vertex="1">
          <mxGeometry x="-7.976972972972973" y="77.32352941176471" width="40" height="30" as="geometry" />
        </mxCell>
        <mxCell id="nFW0XrXpIKqKDF4PZtAt-204" value="&lt;font size=&quot;1&quot;&gt;&lt;span style=&quot;font-size: 12px;&quot;&gt;Л.&lt;/span&gt;&lt;/font&gt;" style="text;html=1;align=center;verticalAlign=middle;resizable=0;points=[];autosize=1;strokeColor=none;fillColor=none;fontFamily=GOST type B;labelBackgroundColor=none;fontStyle=2" parent="nFW0XrXpIKqKDF4PZtAt-175" vertex="1">
          <mxGeometry x="41.8935" y="77.32352941176471" width="30" height="30" as="geometry" />
        </mxCell>
        <mxCell id="nFW0XrXpIKqKDF4PZtAt-205" value="&lt;font&gt;&lt;span&gt;Т.Контр.&lt;/span&gt;&lt;/font&gt;" style="text;html=1;align=center;verticalAlign=middle;resizable=0;points=[];autosize=1;strokeColor=none;fillColor=none;fontFamily=GOST type B;labelBackgroundColor=none;fontStyle=2" parent="nFW0XrXpIKqKDF4PZtAt-175" vertex="1">
          <mxGeometry x="-6.985608108108108" y="138.57983193277312" width="70" height="30" as="geometry" />
        </mxCell>
        <mxCell id="nFW0XrXpIKqKDF4PZtAt-206" value="&lt;font&gt;&lt;span&gt;Рец&lt;/span&gt;&lt;/font&gt;." style="text;html=1;align=center;verticalAlign=middle;resizable=0;points=[];autosize=1;strokeColor=none;fillColor=none;fontFamily=GOST type B;labelBackgroundColor=none;fontStyle=2" parent="nFW0XrXpIKqKDF4PZtAt-175" vertex="1">
          <mxGeometry x="-0.9769729729729733" y="158.6638655462185" width="40" height="30" as="geometry" />
        </mxCell>
        <mxCell id="nFW0XrXpIKqKDF4PZtAt-207" value="&lt;span&gt;&lt;font&gt;Н. контр.&lt;/font&gt;&lt;/span&gt;" style="text;html=1;align=center;verticalAlign=middle;resizable=0;points=[];autosize=1;strokeColor=none;fillColor=none;fontFamily=GOST type B;labelBackgroundColor=none;fontStyle=2" parent="nFW0XrXpIKqKDF4PZtAt-175" vertex="1">
          <mxGeometry x="-2.9769729729729733" y="178.74789915966386" width="70" height="30" as="geometry" />
        </mxCell>
        <mxCell id="nFW0XrXpIKqKDF4PZtAt-208" value="&lt;span&gt;&lt;font&gt;№ докум.&lt;/font&gt;&lt;/span&gt;" style="text;html=1;align=center;verticalAlign=middle;resizable=0;points=[];autosize=1;strokeColor=none;fillColor=none;fontFamily=GOST type B;labelBackgroundColor=none;fontStyle=2" parent="nFW0XrXpIKqKDF4PZtAt-175" vertex="1">
          <mxGeometry x="76.79275675675676" y="77.32352941176471" width="70" height="30" as="geometry" />
        </mxCell>
        <mxCell id="nFW0XrXpIKqKDF4PZtAt-209" value="&lt;font&gt;&lt;span&gt;Еленевич&lt;/span&gt;&lt;/font&gt;" style="text;html=1;align=center;verticalAlign=middle;resizable=0;points=[];autosize=1;strokeColor=none;fillColor=none;fontFamily=GOST type B;labelBackgroundColor=none;fontStyle=2" parent="nFW0XrXpIKqKDF4PZtAt-175" vertex="1">
          <mxGeometry x="61.82729729729729" y="97.41596638655462" width="70" height="30" as="geometry" />
        </mxCell>
        <mxCell id="nFW0XrXpIKqKDF4PZtAt-210" value="&lt;span&gt;&lt;font&gt;Писарчик&lt;/font&gt;&lt;/span&gt;" style="text;html=1;align=center;verticalAlign=middle;resizable=0;points=[];autosize=1;strokeColor=none;fillColor=none;fontFamily=GOST type B;labelBackgroundColor=none;fontStyle=2" parent="nFW0XrXpIKqKDF4PZtAt-175" vertex="1">
          <mxGeometry x="61.83593243243243" y="117.49159663865547" width="70" height="30" as="geometry" />
        </mxCell>
        <mxCell id="nFW0XrXpIKqKDF4PZtAt-211" value="&lt;font&gt;&lt;span&gt;Бруй&lt;/span&gt;&lt;/font&gt;" style="text;html=1;align=center;verticalAlign=middle;resizable=0;points=[];autosize=1;strokeColor=none;fillColor=none;fontFamily=GOST type B;labelBackgroundColor=none;fontStyle=2" parent="nFW0XrXpIKqKDF4PZtAt-175" vertex="1">
          <mxGeometry x="61.82154054054054" y="177.74789915966386" width="50" height="30" as="geometry" />
        </mxCell>
        <mxCell id="nFW0XrXpIKqKDF4PZtAt-212" value="&lt;font&gt;&lt;span&gt;Дата&lt;/span&gt;&lt;/font&gt;" style="text;html=1;align=center;verticalAlign=middle;resizable=0;points=[];autosize=1;strokeColor=none;fillColor=none;fontFamily=GOST type B;labelBackgroundColor=none;fontStyle=2" parent="nFW0XrXpIKqKDF4PZtAt-175" vertex="1">
          <mxGeometry x="214.39554054054054" y="77.32352941176471" width="50" height="30" as="geometry" />
        </mxCell>
        <mxCell id="nFW0XrXpIKqKDF4PZtAt-213" value="&lt;span style=&quot;&quot;&gt;1:1&lt;/span&gt;" style="text;html=1;align=center;verticalAlign=middle;resizable=0;points=[];autosize=1;strokeColor=none;fillColor=none;labelBackgroundColor=none;fontFamily=GOST type B;fontStyle=2" parent="nFW0XrXpIKqKDF4PZtAt-175" vertex="1">
          <mxGeometry x="683.0427027027027" y="94.39495798319328" width="30" height="30" as="geometry" />
        </mxCell>
        <mxCell id="nFW0XrXpIKqKDF4PZtAt-214" value="&lt;span&gt;Каферда ПИКС,&lt;br&gt;&amp;nbsp;гр. 083871&lt;/span&gt;" style="text;html=1;align=center;verticalAlign=middle;resizable=0;points=[];autosize=1;strokeColor=none;fillColor=none;labelBackgroundColor=none;fontFamily=GOST type B;fontStyle=2" parent="nFW0XrXpIKqKDF4PZtAt-175" vertex="1">
          <mxGeometry x="588.3161486486487" y="169.74789915966386" width="100" height="40" as="geometry" />
        </mxCell>
        <mxCell id="nFW0XrXpIKqKDF4PZtAt-215" value="&lt;i style=&quot;border-color: var(--border-color);&quot;&gt;&lt;font style=&quot;border-color: var(--border-color); font-size: 20px;&quot;&gt;ГУИР.08387-09 06 01&lt;/font&gt;&lt;/i&gt;" style="text;html=1;align=center;verticalAlign=middle;resizable=0;points=[];autosize=1;strokeColor=none;fillColor=none;labelBackgroundColor=none;fontFamily=GOST type B;fontStyle=2" parent="nFW0XrXpIKqKDF4PZtAt-175" vertex="1">
          <mxGeometry x="400.00331081081083" y="10.79563025210084" width="200" height="40" as="geometry" />
        </mxCell>
        <mxCell id="nFW0XrXpIKqKDF4PZtAt-216" value="&lt;font face=&quot;GOST type B&quot; style=&quot;font-size: 20px;&quot;&gt;UML&amp;nbsp;&lt;span style=&quot;&quot; lang=&quot;RU&quot;&gt;диаграмма &lt;br&gt;последовательности&amp;nbsp;&lt;/span&gt;&lt;/font&gt;&lt;span style=&quot;font-size: 20px;&quot;&gt;&lt;br&gt;&lt;/span&gt;" style="text;html=1;align=center;verticalAlign=middle;resizable=0;points=[];autosize=1;strokeColor=none;fillColor=none;labelBackgroundColor=none;fontFamily=GOST type B;fontStyle=2" parent="nFW0XrXpIKqKDF4PZtAt-175" vertex="1">
          <mxGeometry x="289.1364864864865" y="79.33193277310924" width="210" height="60" as="geometry" />
        </mxCell>
        <mxCell id="nFW0XrXpIKqKDF4PZtAt-217" value="&lt;span&gt;Формат А1&lt;/span&gt;" style="text;html=1;align=center;verticalAlign=middle;resizable=0;points=[];autosize=1;strokeColor=none;fillColor=none;spacing=0;labelBackgroundColor=none;fontFamily=GOST type B;fontStyle=2" parent="nFW0XrXpIKqKDF4PZtAt-175" vertex="1">
          <mxGeometry x="598.2873648648649" y="218.91596638655463" width="80" height="20" as="geometry" />
        </mxCell>
        <mxCell id="nFW0XrXpIKqKDF4PZtAt-218" value="Писарчик" style="text;html=1;align=center;verticalAlign=middle;resizable=0;points=[];autosize=1;strokeColor=none;fillColor=none;fontFamily=GOST type B;labelBackgroundColor=none;fontStyle=2" parent="nFW0XrXpIKqKDF4PZtAt-175" vertex="1">
          <mxGeometry x="61.83593243243243" y="138.57983193277312" width="70" height="30" as="geometry" />
        </mxCell>
        <mxCell id="nFW0XrXpIKqKDF4PZtAt-219" value="&lt;span&gt;&lt;font&gt;Пискун&lt;/font&gt;&lt;/span&gt;" style="text;html=1;align=center;verticalAlign=middle;resizable=0;points=[];autosize=1;strokeColor=none;fillColor=none;fontFamily=GOST type B;labelBackgroundColor=none;fontStyle=2" parent="nFW0XrXpIKqKDF4PZtAt-175" vertex="1">
          <mxGeometry x="61.82154054054054" y="197.83193277310923" width="60" height="30" as="geometry" />
        </mxCell>
        <mxCell id="nFW0XrXpIKqKDF4PZtAt-220" value="Ковалёва" style="text;html=1;align=center;verticalAlign=middle;resizable=0;points=[];autosize=1;strokeColor=none;fillColor=none;fontFamily=GOST type B;labelBackgroundColor=none;fontStyle=2" parent="nFW0XrXpIKqKDF4PZtAt-175" vertex="1">
          <mxGeometry x="62.82593243243218" y="158.65983193277316" width="70" height="30" as="geometry" />
        </mxCell>
        <mxCell id="nFW0XrXpIKqKDF4PZtAt-221" value="&lt;font&gt;&lt;span&gt;Утв&lt;/span&gt;&lt;/font&gt;." style="text;html=1;align=center;verticalAlign=middle;resizable=0;points=[];autosize=1;strokeColor=none;fillColor=none;labelBackgroundColor=none;fontFamily=GOST type B;fontStyle=2" parent="nFW0XrXpIKqKDF4PZtAt-175" vertex="1">
          <mxGeometry x="-5.976972972972817" y="198.8319327731092" width="50" height="30" as="geometry" />
        </mxCell>
        <mxCell id="nFW0XrXpIKqKDF4PZtAt-222" value="&lt;font style=&quot;font-size: 12px;&quot;&gt;&lt;font style=&quot;font-size: 12px;&quot;&gt;&lt;span&gt;Разраб&lt;/span&gt;&lt;/font&gt;.&lt;/font&gt;" style="text;html=1;align=center;verticalAlign=middle;resizable=0;points=[];autosize=1;strokeColor=none;fillColor=none;fontFamily=GOST type B;labelBackgroundColor=none;fontStyle=2" parent="1" vertex="1">
          <mxGeometry x="2517" y="2179.2" width="60" height="30" as="geometry" />
        </mxCell>
        <mxCell id="nFW0XrXpIKqKDF4PZtAt-223" value="&lt;span&gt;&lt;font&gt;Пров.&lt;/font&gt;&lt;/span&gt;" style="text;html=1;align=center;verticalAlign=middle;resizable=0;points=[];autosize=1;strokeColor=none;fillColor=none;fontFamily=GOST type B;labelBackgroundColor=none;fontStyle=2" parent="1" vertex="1">
          <mxGeometry x="2517" y="2199.2" width="50" height="30" as="geometry" />
        </mxCell>
        <mxCell id="nFW0XrXpIKqKDF4PZtAt-224" value="&lt;span&gt;&lt;font&gt;Подп&lt;/font&gt;&lt;/span&gt;." style="text;html=1;align=center;verticalAlign=middle;resizable=0;points=[];autosize=1;strokeColor=none;fillColor=none;fontFamily=GOST type B;labelBackgroundColor=none;fontStyle=2" parent="1" vertex="1">
          <mxGeometry x="2685" y="2158.2" width="50" height="30" as="geometry" />
        </mxCell>
        <mxCell id="nFW0XrXpIKqKDF4PZtAt-225" value="&lt;span&gt;Лит.&lt;/span&gt;" style="text;html=1;align=center;verticalAlign=middle;resizable=0;points=[];autosize=1;strokeColor=none;fillColor=none;labelBackgroundColor=none;fontFamily=GOST type B;fontStyle=2" parent="1" vertex="1">
          <mxGeometry x="3065" y="2139.2" width="50" height="30" as="geometry" />
        </mxCell>
        <mxCell id="nFW0XrXpIKqKDF4PZtAt-226" value="&lt;span&gt;&lt;font&gt;Масса&lt;/font&gt;&lt;/span&gt;" style="text;html=1;align=center;verticalAlign=middle;resizable=0;points=[];autosize=1;strokeColor=none;fillColor=none;labelBackgroundColor=none;fontFamily=GOST type B;fontStyle=2" parent="1" vertex="1">
          <mxGeometry x="3125" y="2139.2" width="50" height="30" as="geometry" />
        </mxCell>
        <mxCell id="nFW0XrXpIKqKDF4PZtAt-227" value="&lt;span&gt;Масштаб&lt;/span&gt;" style="text;html=1;align=center;verticalAlign=middle;resizable=0;points=[];autosize=1;strokeColor=none;fillColor=none;labelBackgroundColor=none;fontFamily=GOST type B;fontStyle=2" parent="1" vertex="1">
          <mxGeometry x="3185" y="2139.2" width="70" height="30" as="geometry" />
        </mxCell>
        <mxCell id="nFW0XrXpIKqKDF4PZtAt-228" value="&lt;span&gt;Т&lt;/span&gt;" style="text;html=1;align=center;verticalAlign=middle;resizable=0;points=[];autosize=1;strokeColor=none;fillColor=none;labelBackgroundColor=none;fontFamily=GOST type B;fontStyle=2" parent="1" vertex="1">
          <mxGeometry x="3074" y="2175.2" width="30" height="30" as="geometry" />
        </mxCell>
        <mxCell id="nFW0XrXpIKqKDF4PZtAt-229" value="&lt;span&gt;Лист&lt;/span&gt;" style="text;html=1;align=center;verticalAlign=middle;resizable=0;points=[];autosize=1;strokeColor=none;fillColor=none;labelBackgroundColor=none;fontFamily=GOST type B;fontStyle=2" parent="1" vertex="1">
          <mxGeometry x="3065" y="2219.2" width="50" height="30" as="geometry" />
        </mxCell>
        <mxCell id="nFW0XrXpIKqKDF4PZtAt-230" value="&lt;span&gt;Листов&lt;/span&gt;" style="text;html=1;align=center;verticalAlign=middle;resizable=0;points=[];autosize=1;strokeColor=none;fillColor=none;labelBackgroundColor=none;fontFamily=GOST type B;fontStyle=2" parent="1" vertex="1">
          <mxGeometry x="3167" y="2217.2" width="60" height="30" as="geometry" />
        </mxCell>
        <mxCell id="nFW0XrXpIKqKDF4PZtAt-231" value="" style="endArrow=none;html=1;rounded=0;" parent="1" edge="1">
          <mxGeometry width="50" height="50" relative="1" as="geometry">
            <mxPoint x="2520" y="2300.2" as="sourcePoint" />
            <mxPoint x="3260" y="2300.2" as="targetPoint" />
          </mxGeometry>
        </mxCell>
        <mxCell id="nFW0XrXpIKqKDF4PZtAt-232" value="" style="endArrow=none;html=1;rounded=0;" parent="1" edge="1">
          <mxGeometry width="50" height="50" relative="1" as="geometry">
            <mxPoint x="3260" y="2080" as="sourcePoint" />
            <mxPoint x="3260" y="2300.2" as="targetPoint" />
          </mxGeometry>
        </mxCell>
      </root>
    </mxGraphModel>
  </diagram>
</mxfile>
